<?xml version="1.0" encoding="UTF-8"?>
<svg width="30px" height="40px" viewBox="0 0 30 40" version="1.1" xmlns="http://www.w3.org/2000/svg" xmlns:xlink="http://www.w3.org/1999/xlink">
    <title>Pin</title>
    <g id="Symbols" stroke="none" stroke-width="1" fill="none" fill-rule="evenodd">
        <g id="Stockist/Pin/Approved" fill="#BED9E9" fill-rule="nonzero" stroke="#333333" stroke-width="0.7">
            <path d="M15,0.35 C19.0454858,0.35 22.7079858,1.9897571 25.3591143,4.64088566 C28.0102429,7.29201421 29.65,10.9545142 29.65,15 C29.65,20.4419496 23.0796735,29.5403518 18.6839267,35.0551575 L18.6839267,35.0551575 L18.2806085,35.5586349 C16.741366,37.4706039 15.5133687,38.8878031 14.9998524,39.4718024 C14.4862655,38.8873839 13.2585159,37.4704576 11.7199229,35.5592966 L11.7199229,35.5592966 L11.3166049,35.0558227 C6.92032654,29.5403518 0.35,20.4419496 0.35,15 C0.35,10.9545142 1.9897571,7.29201421 4.64088566,4.64088566 C7.29201421,1.9897571 10.9545142,0.35 15,0.35 Z" id="Pin"></path>
        </g>
    </g>
</svg>