<svg xmlns="http://www.w3.org/2000/svg" xmlns:xlink="http://www.w3.org/1999/xlink" width="18" height="33" viewBox="0 0 18 33">
    <path d="M25.3701767,8.32460205 L24.7189197,7.63742966 C24.6321402,7.54566545 24.532175,7.50007222 24.4191608,7.50007222 C24.3064205,7.50007222 24.2065008,7.54566545 24.1197213,7.63742966 L9.00014066,23.0394337 L-6.11921188,7.6375741 C-6.20603702,7.54580989 -6.30595665,7.50007222 -6.4188339,7.50007222 C-6.53175676,7.50007222 -6.63167639,7.54580989 -6.71845591,7.6375741 L-7.36962164,8.32479463 C-7.45658365,8.41636626 -7.49992778,8.52180363 -7.49992778,8.6409623 C-7.49992778,8.76002467 -7.45644678,8.86546204 -7.36962164,8.95703367 L8.70051864,25.3625222 C8.78729816,25.454142 8.88726341,25.4999278 9.00014066,25.4999278 C9.1130179,25.4999278 9.21280065,25.454142 9.29953454,25.3625222 L25.3701767,8.95703367 C25.4569562,8.8654139 25.5000722,8.75997653 25.5000722,8.6409623 C25.5000722,8.52180363 25.4569562,8.41636626 25.3701767,8.32460205 Z" transform="matrix(0 1 1 0 -7.5 7.5)" />
</svg>
