<svg xmlns="http://www.w3.org/2000/svg" width="30" height="40" viewBox="0 0 30 40">
  <g fill="none">
    <path fill="#FFF" d="M15,40 C15,40 30,23.2842712 30,15 C30,6.71572875 23.2842712,2.13162821e-14 15,2.13162821e-14 C6.71572875,2.13162821e-14 0,6.71572875 0,15 C0,23.2842712 15,40 15,40 Z"/>
    <path fill="#FFF" d="M15,40 C15,40 30,23.2842712 30,15 C30,6.71572875 23.2842712,2.13162821e-14 15,2.13162821e-14 C6.71572875,2.13162821e-14 0,6.71572875 0,15 C0,23.2842712 15,40 15,40 Z M10.7474408,28.2711942 C9.47032429,26.4953327 8.3278451,24.7822614 7.35530296,23.166046 C5.17951991,19.5502294 4,16.6185885 4,15 C4,8.92486775 8.92486775,4 15,4 C21.0751322,4 26,8.92486775 26,15 C26,16.6185885 24.8204801,19.5502294 22.644697,23.166046 C21.6721549,24.7822614 20.5296757,26.4953327 19.2525592,28.2711942 C17.8981602,30.1545189 16.4555205,32.0227516 15,33.8103845 C13.5444795,32.0227516 12.1018398,30.1545189 10.7474408,28.2711942 Z"/>
    <path fill="#8499A5" d="M15,40 C15,40 30,23.2842712 30,15 C30,6.71572875 23.2842712,2.13162821e-14 15,2.13162821e-14 C6.71572875,2.13162821e-14 0,6.71572875 0,15 C0,23.2842712 15,40 15,40 Z M14.1960504,35.982397 C12.4655788,33.8947053 10.7352396,31.6797546 9.12372041,29.438898 C7.81660729,27.6213254 6.64444246,25.8637425 5.64163433,24.1972297 C3.29153488,20.2917261 2,17.0816773 2,15 C2,7.82029825 7.82029825,2 15,2 C22.1797017,2 28,7.82029825 28,15 C28,17.0816773 26.7084651,20.2917261 24.3583657,24.1972297 C23.3555575,25.8637425 22.1833927,27.6213254 20.8762796,29.438898 C19.2647604,31.6797546 17.5344212,33.8947053 15.8039496,35.982397 C15.526302,36.3173592 15.2578453,36.6378882 15,36.9427856 C14.7421547,36.6378882 14.473698,36.3173592 14.1960504,35.982397 Z"/>
  </g>
</svg>
