<?xml version="1.0" standalone="no"?>
<!DOCTYPE svg PUBLIC "-//W3C//DTD SVG 20010904//EN"
 "http://www.w3.org/TR/2001/REC-SVG-20010904/DTD/svg10.dtd">
<svg version="1.0" xmlns="http://www.w3.org/2000/svg"
 width="454.000000pt" height="454.000000pt" viewBox="0 0 454.000000 454.000000"
 preserveAspectRatio="xMidYMid meet">
<metadata>
Created by potrace 1.14, written by Peter Selinger 2001-2017
</metadata>
<g transform="translate(0.000000,454.000000) scale(0.100000,-0.100000)"
fill="#000000" stroke="none">
<path d="M2070 3740 c-41 -5 -102 -16 -135 -24 -33 -8 -76 -17 -95 -19 -19 -3
-62 -17 -95 -32 -107 -48 -125 -55 -140 -55 -8 0 -15 -4 -15 -9 0 -5 -12 -13
-27 -19 -16 -5 -45 -24 -67 -41 -21 -17 -44 -31 -51 -31 -6 0 -24 -13 -40 -30
-16 -16 -35 -30 -42 -30 -7 0 -13 -7 -13 -15 0 -8 -5 -15 -11 -15 -6 0 -32
-22 -59 -50 -27 -27 -53 -50 -59 -50 -6 0 -11 -6 -11 -13 0 -8 -9 -22 -20 -32
-11 -10 -20 -24 -20 -31 0 -7 -8 -17 -17 -23 -23 -12 -91 -123 -143 -231 -23
-47 -50 -101 -61 -121 -10 -20 -19 -47 -19 -58 0 -12 -9 -50 -19 -84 -47 -149
-55 -205 -59 -446 -4 -248 6 -328 59 -497 10 -33 19 -69 19 -79 0 -10 22 -64
50 -121 27 -57 50 -106 50 -110 0 -4 15 -28 33 -53 17 -26 41 -63 51 -84 11
-20 23 -37 27 -37 5 0 20 -17 33 -38 38 -58 213 -224 268 -252 20 -11 39 -24
42 -29 3 -5 24 -18 45 -29 22 -12 48 -25 58 -31 17 -9 137 -64 178 -82 11 -4
43 -12 70 -18 28 -5 86 -18 129 -30 68 -18 108 -21 276 -21 169 0 207 3 276
21 43 12 104 27 134 34 30 6 84 25 120 42 36 17 81 38 100 47 34 16 72 38 141
83 19 13 40 23 47 23 6 0 12 7 12 15 0 8 3 15 8 15 4 0 30 21 57 46 28 25 55
48 61 52 20 13 121 148 150 199 16 29 32 53 37 53 4 0 7 6 7 13 0 7 10 30 21
52 12 22 25 51 29 65 9 32 2 -138 -11 -250 -5 -47 -9 -174 -9 -282 l0 -198 85
0 85 0 0 1455 0 1455 -86 0 -86 0 6 -237 c3 -131 8 -294 11 -363 2 -69 2 -118
-2 -110 -3 8 -11 22 -18 30 -6 8 -17 34 -24 58 -6 23 -16 42 -21 42 -6 0 -19
20 -31 45 -12 25 -25 45 -30 45 -5 0 -9 6 -9 13 0 22 -188 217 -209 217 -5 0
-16 11 -25 24 -8 14 -25 28 -38 31 -12 4 -40 21 -62 37 -39 29 -177 98 -195
98 -4 0 -38 14 -74 30 -37 17 -79 30 -94 30 -16 0 -66 9 -113 20 -99 23 -309
33 -420 20z m240 -170 c58 -6 141 -20 185 -31 44 -11 103 -25 130 -29 49 -8
197 -75 203 -91 2 -5 10 -9 18 -9 19 0 49 -19 87 -53 17 -16 43 -35 59 -43 15
-8 28 -19 28 -24 0 -6 11 -16 25 -22 14 -6 25 -15 25 -20 0 -4 17 -26 39 -48
45 -47 141 -183 141 -201 0 -7 11 -27 25 -45 14 -18 25 -39 25 -46 0 -8 4 -18
8 -24 5 -5 14 -29 21 -54 7 -25 24 -70 36 -100 14 -31 28 -96 34 -150 36 -317
36 -294 1 -610 -11 -94 -20 -136 -45 -195 -6 -16 -22 -64 -35 -105 -12 -41
-26 -79 -30 -85 -5 -5 -27 -47 -50 -93 -23 -45 -50 -87 -61 -92 -10 -6 -19
-18 -19 -28 -1 -28 -197 -222 -225 -222 -7 0 -15 -6 -18 -14 -3 -8 -31 -25
-62 -40 -31 -14 -70 -35 -87 -47 -17 -12 -63 -30 -102 -40 -39 -9 -98 -25
-131 -35 -50 -15 -99 -18 -290 -18 -208 0 -236 2 -290 21 -33 12 -87 27 -120
34 -33 7 -67 18 -75 24 -8 7 -50 29 -92 49 -42 21 -82 44 -88 52 -7 8 -17 14
-22 14 -31 0 -298 262 -298 293 0 7 -9 22 -21 33 -27 24 -112 200 -137 284
-75 244 -75 244 -74 504 1 217 3 248 22 311 12 39 26 88 30 110 23 107 107
299 156 358 13 16 24 33 24 39 0 21 206 238 225 238 6 0 24 13 39 29 16 16 55
42 87 57 32 16 59 32 59 36 0 4 6 8 13 8 8 0 38 13 68 30 30 16 67 30 82 30
16 0 67 11 115 25 48 13 123 29 167 33 44 5 82 10 85 11 3 0 52 -4 110 -9z
m1137 -622 c-3 -7 -5 -2 -5 12 0 14 2 19 5 13 2 -7 2 -19 0 -25z"/>
</g>
</svg>
