<svg xmlns="http://www.w3.org/2000/svg" xmlns:xlink="http://www.w3.org/1999/xlink">
<defs>
<path d="M9.9.634 9.4.106A.309.309 0 0 0 9.168 0a.309.309 0 0 0-.23.106L5 4.26 1.062.106A.309.309 0 0 0 .832 0a.309.309 0 0 0-.23.106L.1.635a.343.343 0 0 0 0 .486l4.67 4.927a.31.31 0 0 0 .23.106.309.309 0 0 0 .23-.106L9.9 1.121a.343.343 0 0 0 0-.487Z" id="a"/><path d="M9.9.634 9.4.106A.309.309 0 0 0 9.168 0a.309.309 0 0 0-.23.106L5 4.26 1.062.106A.309.309 0 0 0 .832 0a.309.309 0 0 0-.23.106L.1.635a.343.343 0 0 0 0 .486l4.67 4.927a.31.31 0 0 0 .23.106.309.309 0 0 0 .23-.106L9.9 1.121a.343.343 0 0 0 0-.487Z" id="b"/><path d="M9.9.634 9.4.106A.309.309 0 0 0 9.168 0a.309.309 0 0 0-.23.106L5 4.26 1.062.106A.309.309 0 0 0 .832 0a.309.309 0 0 0-.23.106L.1.635a.343.343 0 0 0 0 .486l4.67 4.927a.31.31 0 0 0 .23.106.309.309 0 0 0 .23-.106L9.9 1.121a.343.343 0 0 0 0-.487Z" id="c"/><path d="M9.9.634 9.4.106A.309.309 0 0 0 9.168 0a.309.309 0 0 0-.23.106L5 4.26 1.062.106A.309.309 0 0 0 .832 0a.309.309 0 0 0-.23.106L.1.635a.343.343 0 0 0 0 .486l4.67 4.927a.31.31 0 0 0 .23.106.309.309 0 0 0 .23-.106L9.9 1.121a.343.343 0 0 0 0-.487Z" id="d"/><path d="M9.9.634 9.4.106A.309.309 0 0 0 9.168 0a.309.309 0 0 0-.23.106L5 4.26 1.062.106A.309.309 0 0 0 .832 0a.309.309 0 0 0-.23.106L.1.635a.343.343 0 0 0 0 .486l4.67 4.927a.31.31 0 0 0 .23.106.309.309 0 0 0 .23-.106L9.9 1.121a.343.343 0 0 0 0-.487Z" id="e"/><path d="M9.9.634 9.4.106A.309.309 0 0 0 9.168 0a.309.309 0 0 0-.23.106L5 4.26 1.062.106A.309.309 0 0 0 .832 0a.309.309 0 0 0-.23.106L.1.635a.343.343 0 0 0 0 .486l4.67 4.927a.31.31 0 0 0 .23.106.309.309 0 0 0 .23-.106L9.9 1.121a.343.343 0 0 0 0-.487Z" id="f"/>
<linearGradient id="a" x1="50%" x2="50%" y1="0%" y2="99.77%"><stop offset="0%"/><stop offset="100%" stop-opacity="0"/></linearGradient>
<path id="a" d="M.594.082h21.967v11.184H.594z"/><path id="c" d="M.594.082h21.967v11.184H.594z"/>
<path id="a" d="M11 59.089h48.518v-57H11z"/>
<path id="a" d="M0 .035h33.681v32.706H0z"/>
<path id="a" d="m18.117 22.359-4.85-1.267-4.325 2.534-2.534-4.325-4.85-1.267 1.267-4.85L.291 8.859l4.325-2.533 1.266-4.85 4.85 1.266L15.057.209l2.534 4.325 4.85 1.266-1.267 4.85 2.534 4.325-4.325 2.534z"/><path id="c" d="m26.001.501 4.539 7.616 8.595 2.175-2.175 8.595 4.539 7.615-7.616 4.539-2.175 8.595-8.595-2.175L15.498 42l-4.539-7.615-8.595-2.176 2.176-8.595L0 15.999l7.615-4.539 2.176-8.595 8.595 2.176z"/><path id="e" d="m14.197.297 5.493 4.047 6.747-1.023 1.023 6.747 5.493 4.047-4.047 5.493 1.023 6.746-6.747 1.024-4.047 5.493-5.493-4.047-6.746 1.022L5.873 23.1.379 19.053l4.047-5.493-1.022-6.747L10.15 5.79z"/>
<path id="a" d="M.27.345h15.36v.351H.27z"/><path id="c" d="M.53.36h15.575v8.072H.53z"/><path id="e" d="M0 36.541h25.943V.345H0z"/>
<linearGradient x1="78.125%" y1="0%" x2="21.875%" y2="100%" id="a"><stop stop-color="#F1CF43" offset="0%"/><stop stop-color="#FFEFAF" offset="50.942%"/><stop stop-color="#F1CF43" offset="100%"/></linearGradient>
<linearGradient x1="78.125%" y1="0%" x2="21.875%" y2="100%" id="a"><stop stop-color="#979797" offset="0%"/><stop stop-color="#FFF" offset="46.812%"/><stop stop-color="#8F8F8F" offset="100%"/></linearGradient><path d="M15 40s15-16.716 15-25c0-8.284-6.716-15-15-15C6.716 0 0 6.716 0 15c0 8.284 15 25 15 25Z" id="b"/>
<path id="a" d="M0 0h202v137H0z"/>
<path id="a" d="M0 0h17.69v15.724H0z"/>
</defs>
<symbol id="external" viewBox="0 0 13 14"><path d="M6 2.5v1H2a1 1 0 0 0-.993.883L1 4.5v7a1 1 0 0 0 .883.993L2 12.5h7a1 1 0 0 0 .993-.883L10 11.5v-4h1v4a2 2 0 0 1-2 2H2a2 2 0 0 1-2-2v-7a2 2 0 0 1 2-2h4ZM13 5h-1V1.706L4.964 8.743l-.707-.707L11.292 1H8V0h5v5Z" fill="#6F8591" fill-rule="nonzero"/></symbol>
<symbol id="icon-account" viewBox="0 0 19 19"><path d="M9.25 0a4.5 4.5 0 1 1 0 9 4.5 4.5 0 0 1 0-9Zm0 1.5a3 3 0 1 0 0 6 3 3 0 0 0 0-6Zm0 8.25a9.25 9.25 0 0 1 9.246 8.982L18.5 19H17a7.75 7.75 0 0 0-15.496-.246L1.5 19H0a9.25 9.25 0 0 1 9.25-9.25Z"/></symbol>
<symbol id="icon-action-required" viewBox="0 0 40 40"><circle cx="20" cy="20" r="20"/><path d="M21.5 10h-3v13h3V10Zm0 16h-3v3h3v-3Z" fill="#FFF"/></symbol>
<symbol id="icon-add-downloads" viewBox="0 0 15 18"><path d="M9.191 0c.463 0 .908.189 1.236.522l3.059 3.104c.328.333.514.788.514 1.258V9h-1.75V6.516H8.458a.88.88 0 0 1-.875-.888V1.78H1.75v14.444L6 16.223V18H1.75a1.761 1.761 0 0 1-1.744-1.63L0 16.223V1.78C0 .8.784.004 1.75 0Zm.142 1.924V4.74h2.775L9.333 1.924Z"/><path d="m12.143 10-.001 2.857H15v2.286l-2.858-.001V18H9.858v-2.858H7v-2.285h2.857V10h2.286Z"/></symbol>
<symbol id="icon-add-piece" viewBox="0 0 8 17"><path d="M5.03 3.091V16.97h-2V3.09l-1.47 1.47L.5 3.5 4.03-.03 7.56 3.5 6.5 4.56 5.03 3.092Z"/></symbol>
<symbol id="icon-add-to-basket" viewBox="0 0 25.16 20"><g data-name="Layer 2"><path d="M14.87 8A5.94 5.94 0 0 1 15 6.71h-2.17V0H10.9v6.73L0 6.65 5.19 20H18.5l2.34-6a5.94 5.94 0 0 1-5.97-6Zm6-4.25A4.25 4.25 0 1 0 25.16 8a4.26 4.26 0 0 0-4.25-4.22Zm2.93 4.61h-2.57v2.57h-.65V8.36H18v-.65h2.57V5.14h.65v2.57h2.58Z" data-name="Layer 1"/></g></symbol>
<symbol id="icon-adjustable" viewBox="0 0 25 20.84"><g data-name="Layer 2"><path d="M3.1 17.86C.67 14.81-1.09 10 2.65 3.48l1.7 1.19.4-4.67L.51 2l1.71 1.18c-4.1 7.12-1.67 12.31.51 15.06L1.3 19.78l4.56 1.06-1.35-4.49Zm7.24-9.59a2.3 2.3 0 0 0-1.54-.55A2.34 2.34 0 0 0 7.61 8a2.62 2.62 0 0 0 0 4.48 2.52 2.52 0 0 0 1.23.33 2.25 2.25 0 0 0 1.51-.55v.45h.93V7.82h-.94Zm0 2.93a1.71 1.71 0 0 1-1.34.67 1.6 1.6 0 0 1-1.68-1.57 1.57 1.57 0 0 1 1.56-1.64 1.78 1.78 0 0 1 1.4.7Zm10.24-3.39h-1v5.37a1.4 1.4 0 0 1-.19.88 1 1 0 0 1-.75.34 1.6 1.6 0 0 1-.37 0l-.21.91a2.29 2.29 0 0 0 .59.07 1.92 1.92 0 0 0 1.61-.81 2.3 2.3 0 0 0 .31-1.38ZM23.9 5.3A1.1 1.1 0 1 0 25 6.4a1.1 1.1 0 0 0-1.1-1.1Zm0 1.64a.55.55 0 1 1 .55-.55.55.55 0 0 1-.55.55Zm-7.28 1.31A2.42 2.42 0 0 0 13.91 8a2.62 2.62 0 0 0 0 4.48 2.52 2.52 0 0 0 1.23.33 2.26 2.26 0 0 0 1.51-.55v.45h1V5.34h-1Zm0 3a1.7 1.7 0 0 1-1.34.65 1.6 1.6 0 0 1-1.63-1.58 1.57 1.57 0 0 1 1.52-1.62h.05a1.78 1.78 0 0 1 1.39.7Zm3.5-5.8a.65.65 0 0 0-.65.65.64.64 0 0 0 .62.65.65.65 0 0 0 .68-.61.66.66 0 0 0-.65-.72Z" data-name="Layer 1"/></g></symbol>
<symbol id="icon-approved" viewBox="0 0 30 40"><path d="M15 .35c4.045 0 7.708 1.64 10.36 4.29A14.604 14.604 0 0 1 29.65 15c0 5.442-6.57 14.54-10.966 20.055l-.403.504A121.606 121.606 0 0 1 15 39.472a122.12 122.12 0 0 1-3.28-3.913l-.403-.503C6.92 29.54.35 20.442.35 15c0-4.045 1.64-7.708 4.29-10.36A14.604 14.604 0 0 1 15 .35Z" fill="#BED9E9" fill-rule="nonzero" stroke="#333" stroke-width=".7"/></symbol>
<symbol id="icon-arrow-carousel-left" viewBox="0 0 14 25"><path d="m13.012 24.902.52-.494a.304.304 0 0 0 .104-.227.304.304 0 0 0-.104-.227L1.864 12.5 13.532 1.046a.304.304 0 0 0 .104-.227.304.304 0 0 0-.104-.227l-.52-.493a.338.338 0 0 0-.48 0L.105 12.273A.304.304 0 0 0 0 12.5c0 .086.035.161.104.227l12.429 12.175a.338.338 0 0 0 .479 0Z"/></symbol>
<symbol id="icon-arrow-carousel-right" viewBox="0 0 14 25"><path d="m.625 24.902-.52-.494A.304.304 0 0 1 0 24.181c0-.085.035-.161.104-.227L11.772 12.5.104 1.046A.304.304 0 0 1 0 .819C0 .733.035.658.104.592l.52-.493a.338.338 0 0 1 .48 0l12.428 12.174c.07.066.104.142.104.227a.304.304 0 0 1-.104.227L1.104 24.902a.338.338 0 0 1-.48 0Z"/></symbol>
<symbol id="icon-arrow-cycle" viewBox="0 0 230 220"><g fill="none" fill-rule="evenodd"><use fill="#000" fill-rule="nonzero" transform="scale(-1 1) rotate(65 -93.703 -128.917)" xlink:href="#a"/><use fill="#000" fill-rule="nonzero" transform="rotate(132 -13.494 115.395)" xlink:href="#b"/><use fill="#000" fill-rule="nonzero" transform="rotate(-115 35.141 -6.564)" xlink:href="#c"/><use fill="#000" fill-rule="nonzero" transform="matrix(-1 0 0 1 230 108)" xlink:href="#d"/><use fill="#000" fill-rule="nonzero" transform="scale(-1 1) rotate(-53 118.572 280.5)" xlink:href="#e"/><use fill="#000" fill-rule="nonzero" transform="matrix(1 0 0 -1 0 115)" xlink:href="#f"/></g></symbol>
<symbol id="icon-arrow-down" viewBox="0 0 17.97 24.57"><g data-name="Layer 2"><path d="m0 15.76 7.36 8.79v.02l.01-.01.01.01v-.02l7.36-8.8H9.63V4.53h8.34V.01H9.63V0H5.12v15.76H0z" data-name="Layer 1"/></g></symbol>
<symbol id="icon-arrow-large-down" viewBox="0 0 33 18"><path d="M32.87.825 32.22.137a.401.401 0 0 0-.3-.137.401.401 0 0 0-.3.137L16.5 15.54 1.38.138A.402.402 0 0 0 1.082 0a.401.401 0 0 0-.3.138l-.65.687a.446.446 0 0 0 0 .632L16.2 17.862a.402.402 0 0 0 .3.138.401.401 0 0 0 .298-.138L32.87 1.457a.446.446 0 0 0 0-.632Z"/></symbol>
<symbol id="icon-arrow-large-left" viewBox="0 0 18 33"><path d="m17.175 32.87.688-.651a.401.401 0 0 0 .137-.3.401.401 0 0 0-.137-.3L2.46 16.5 17.862 1.38A.402.402 0 0 0 18 1.082a.401.401 0 0 0-.138-.3l-.687-.65a.446.446 0 0 0-.632 0L.137 16.2a.402.402 0 0 0-.137.3c0 .112.046.212.137.299l16.406 16.07a.446.446 0 0 0 .632 0Z"/></symbol>
<symbol id="icon-arrow-large-right" viewBox="0 0 18 33"><path d="m.825 32.87-.688-.651a.401.401 0 0 1-.137-.3c0-.113.046-.212.137-.3L15.54 16.5.138 1.38A.402.402 0 0 1 0 1.082c0-.113.046-.213.138-.3l.687-.65a.446.446 0 0 1 .632 0L17.863 16.2a.402.402 0 0 1 .137.3.401.401 0 0 1-.137.299L1.457 32.87a.446.446 0 0 1-.632 0Z"/></symbol>
<symbol id="icon-arrow-large-up" viewBox="0 0 33 18"><path d="m32.87 17.175-.651.688a.401.401 0 0 1-.3.137.401.401 0 0 1-.3-.137L16.5 2.46 1.38 17.862a.402.402 0 0 1-.299.138.401.401 0 0 1-.3-.138l-.65-.687a.446.446 0 0 1 0-.632L16.2.138A.402.402 0 0 1 16.5 0c.112 0 .212.046.298.138L32.87 16.543a.446.446 0 0 1 0 .632Z"/></symbol>
<symbol id="icon-arrow-mid-down" viewBox="0 0 13 8"><path d="M12.87.825 12.22.138a.402.402 0 0 0-.3-.138.401.401 0 0 0-.3.138L6.5 5.54 1.38.138A.402.402 0 0 0 1.082 0a.401.401 0 0 0-.3.138l-.65.687a.446.446 0 0 0 0 .632L6.2 7.863A.402.402 0 0 0 6.5 8a.401.401 0 0 0 .298-.137l6.071-6.406a.446.446 0 0 0 0-.632Z"/></symbol>
<symbol id="icon-arrow-mid-left" viewBox="0 0 8 13"><path d="m7.175 12.87.687-.651a.402.402 0 0 0 .138-.3.401.401 0 0 0-.138-.3L2.46 6.5l5.402-5.12A.402.402 0 0 0 8 1.082a.401.401 0 0 0-.138-.3l-.687-.65a.446.446 0 0 0-.632 0L.137 6.2A.402.402 0 0 0 0 6.5c0 .112.046.212.137.298l6.406 6.071a.446.446 0 0 0 .632 0Z"/></symbol>
<symbol id="icon-arrow-mid-right" viewBox="0 0 8 13"><path d="m.825 12.87-.687-.651a.402.402 0 0 1-.138-.3c0-.113.046-.213.138-.3L5.54 6.5.138 1.38A.402.402 0 0 1 0 1.082c0-.113.046-.213.138-.3l.687-.65a.446.446 0 0 1 .632 0L7.863 6.2A.402.402 0 0 1 8 6.5a.401.401 0 0 1-.137.298L1.457 12.87a.446.446 0 0 1-.632 0Z"/></symbol>
<symbol id="icon-arrow-mid-up" viewBox="0 0 13 8"><path d="m.13 7.175.651.687a.402.402 0 0 0 .3.138.401.401 0 0 0 .3-.138L6.5 2.46l5.12 5.402a.402.402 0 0 0 .299.138.401.401 0 0 0 .3-.138l.65-.687a.446.446 0 0 0 0-.632L6.8.137A.402.402 0 0 0 6.5 0a.401.401 0 0 0-.298.137L.13 6.543a.446.446 0 0 0 0 .632Z"/></symbol>
<symbol id="icon-arrow-small-down" viewBox="0 0 10 7"><path d="M9.9.634 9.4.106A.309.309 0 0 0 9.168 0a.309.309 0 0 0-.23.106L5 4.26 1.062.106A.309.309 0 0 0 .832 0a.309.309 0 0 0-.23.106L.1.635a.343.343 0 0 0 0 .486l4.67 4.927a.31.31 0 0 0 .23.106.309.309 0 0 0 .23-.106L9.9 1.121a.343.343 0 0 0 0-.487Z"/></symbol>
<symbol id="icon-arrow-small-left" viewBox="0 0 7 10"><path d="m5.52.1.528.501c.07.067.106.144.106.23a.309.309 0 0 1-.106.23L1.893 5l4.155 3.938c.07.067.106.144.106.23a.309.309 0 0 1-.106.23l-.529.502a.343.343 0 0 1-.486 0L.106 5.23A.31.31 0 0 1 0 5c0-.087.035-.164.106-.23L5.033.1a.343.343 0 0 1 .487 0Z"/></symbol>
<symbol id="icon-arrow-small-right" viewBox="0 0 7 10"><path d="m.634 9.9-.528-.501A.309.309 0 0 1 0 9.169c0-.087.035-.164.106-.23L4.26 5 .106 1.062A.309.309 0 0 1 0 .832C0 .745.035.668.106.602L.635.1a.343.343 0 0 1 .486 0l4.927 4.67a.31.31 0 0 1 .106.23.309.309 0 0 1-.106.23L1.121 9.9a.343.343 0 0 1-.487 0Z"/></symbol>
<symbol id="icon-arrow-small-up" viewBox="0 0 10 7"><path d="m9.9 5.52-.5.528a.309.309 0 0 1-.231.106.309.309 0 0 1-.23-.106L5 1.893 1.062 6.048a.309.309 0 0 1-.23.106.309.309 0 0 1-.23-.106L.1 5.52a.343.343 0 0 1 0-.486L4.77.106A.31.31 0 0 1 5 0c.087 0 .164.035.23.106L9.9 5.033a.343.343 0 0 1 0 .487Z"/></symbol>
<symbol id="icon-arrow-straight-down" viewBox="0 0 13 23"><path fill="#7F9AA6" fill-rule="evenodd" d="M11.919 15c.113 0 .213.046.3.138l.65.687a.446.446 0 0 1 0 .632L6.8 22.863a.402.402 0 0 1-.3.137.401.401 0 0 1-.298-.137L.13 16.457a.446.446 0 0 1 0-.632l.651-.687a.402.402 0 0 1 .3-.138c.113 0 .213.046.3.138L6.5 20.54l5.12-5.402a.402.402 0 0 1 .299-.138ZM6.5 0a.5.5 0 0 1 .5.5v19a.5.5 0 1 1-1 0V.5a.5.5 0 0 1 .5-.5Z"/></symbol>
<symbol id="icon-arrow-thin" viewBox="0 0 6 10"><path fill="none" d="M5 0 1.053 4.957 5 9.967"/></symbol>
<symbol id="icon-arrow-up" viewBox="0 0 17.97 24.57"><g data-name="Layer 2"><path d="M17.97 8.81 10.61.01V0l-.01.01-.01-.01v.02L3.23 8.81h5.1v11.23H0v4.52h8.33v.01h4.52V8.81h5.12z" data-name="Layer 1"/></g></symbol>
<symbol id="icon-arrow" viewBox="0 0 15 37"><g fill="none"><path d="M7.5.5v35M.11 29.405l7.527 6.631 7.346-6.347"/></g></symbol>
<symbol id="icon-astro" viewBox="0 0 484 128"><path d="M90.564 125.65v-12.156l1.159-13.701C85.16 118.316 65.857 127 49.257 126.809 23.005 126.809 1 108.285 1 77.988c0-29.907 21.619-48.816 47.871-48.816 17.565 0 37.641 9.262 42.853 28.172l-1.159-15.437V30.33h5.791v95.32h-5.792zM6.791 77.988c0 27.207 19.496 43.223 42.66 43.223 28.954 0 41.307-20.838 41.307-44.188 0-22.381-14.091-42.256-42.08-42.256-23.163 0-41.887 16.209-41.887 43.221zM197.506 45.766c-8.107-7.718-19.109-11.384-31.656-11.384-16.601 0-31.657 5.403-31.657 19.874 0 15.822 19.882 17.174 31.85 19.682 16.601 3.279 38.992 5.209 38.992 26.629 0 20.066-21.04 26.049-38.799 26.049-17.18 0-34.166-7.141-41.115-19.488l4.633-3.281c8.106 12.35 23.163 17.365 36.674 17.365 12.161 0 32.815-3.471 32.815-20.838 0-16.016-18.145-17.945-34.359-21.033-18.53-3.473-36.482-6.561-36.482-25.084 0-17.944 18.145-25.276 37.448-25.276 13.705 0 26.059 4.051 35.324 12.735l-3.668 4.05zM251.749 1v29.33h33.973v5.017h-33.973v61.938c0 13.893 2.124 24.312 18.917 24.312 4.825 0 12.16-2.316 17.18-4.822l2.509 4.822c-5.79 3.088-13.512 5.402-19.303 5.402-20.074-.191-25.094-10.998-25.094-29.715V35.347h-20.847V30.33h20.847V1.579L251.749 1zM320.663 30.33v10.42l-.579 13.121c4.633-14.471 18.532-24.312 34.359-24.312 5.791 0 12.547 1.351 18.53 4.632l-2.51 4.823c-5.212-2.894-11.002-4.051-16.021-4.051-19.11.193-33.395 16.4-33.395 33.768v56.922h-5.983V30.33h5.599zM434.743 28.786c25.865 0 48.257 18.91 48.257 49.396 0 31.068-22.584 48.627-48.45 48.627-25.673 0-48.257-17.559-48.257-48.627 0-31.066 22.392-49.396 48.45-49.396zm-.193 5.596c-22.584 0-42.465 16.594-42.465 43.8 0 27.209 19.881 43.029 42.465 43.029 22.777 0 42.66-15.82 42.66-43.029 0-27.206-19.496-43.8-42.66-43.8z"/></symbol>
<symbol id="icon-available" viewBox="0 0 40 40"><circle cx="20" cy="20" r="20"/><path d="m10.393 20.121 1.962-1.96 5.11 5.109 10.18-10.18 1.962 1.96-12.143 12.142-7.07-7.07Z" fill="#FFF"/></symbol>
<symbol id="icon-back-arrow-large" viewBox="0 0 14 24"><path d="M12 0 0 12l12 12 2-2L4 12 14 2z"/></symbol>
<symbol id="icon-back-arrow" viewBox="0 0 6 10"><path d="M0 4.9c0 .084.034.16.103.225l4.804 4.576a.334.334 0 0 0 .474 0l.516-.491A.304.304 0 0 0 6 8.984a.304.304 0 0 0-.103-.226L1.845 4.899l4.052-3.858A.304.304 0 0 0 6 .815a.304.304 0 0 0-.103-.226L5.38.1a.334.334 0 0 0-.474 0L.103 4.673A.304.304 0 0 0 0 4.899Z"/></symbol>
<symbol id="icon-basket" viewBox="0 0 18 15"><path d="M16.548 6.346a.5.5 0 0 1 .638-.264l.498.192.02.009a.5.5 0 0 1 .258.658l-3.237 7.394a.767.767 0 0 1-.715.49H3.99a.767.767 0 0 1-.715-.49L.038 6.94l-.008-.02a.5.5 0 0 1 .286-.647l.498-.192a.5.5 0 0 1 .638.264l3.064 6.945h8.968ZM9 0a3.834 3.834 0 0 1 3.834 3.834v3.334a.5.5 0 0 1-.5.5H11.8a.5.5 0 0 1-.5-.5V3.834a2.3 2.3 0 0 0-4.6 0v3.334a.5.5 0 0 1-.5.5h-.534a.5.5 0 0 1-.5-.5V3.834A3.834 3.834 0 0 1 9 0Z"/></symbol>
<symbol id="icon-bathroom" viewBox="0 0 30 40"><path d="M15 .35c4.045 0 7.708 1.64 10.36 4.29A14.604 14.604 0 0 1 29.65 15c0 5.442-6.57 14.54-10.966 20.055l-.403.504A121.606 121.606 0 0 1 15 39.472a122.12 122.12 0 0 1-3.28-3.913l-.403-.503C6.92 29.54.35 20.442.35 15c0-4.045 1.64-7.708 4.29-10.36A14.604 14.604 0 0 1 15 .35Z" stroke="#333" stroke-width=".7" fill="#CFC8E2" fill-rule="nonzero"/></symbol>
<symbol id="icon-beam-angle" viewBox="0 0 24 24"><g fill="none" fill-rule="evenodd"><path fill="url(#a)" d="M8 8c1.333.667 2.667 1 4 1 1.333 0 2.667-.333 4-1l8 16H0Z"/><path fill="#000" d="m12 0 3 6c-1 .667-2 1-3 1s-2-.333-3-1l3-6Z"/></g></symbol>
<symbol id="icon-casambi-colourtemp" viewBox="0 0 70 70"><g fill="none" fill-rule="evenodd"><circle cx="35" cy="35" r="34.5" fill="#FFF" stroke="#EAEAEA"/><path fill="#F9F4A1" d="m34.919 12.667.008 21.918 11-18.953z"/><path fill="#B1D5A2" d="m15.899 23.693 19.029 10.892-10.986-18.972z"/><path fill="#E5ED9F" d="m23.981 15.592 10.946 18.992.072-21.917z"/><path fill="#8AC7E6" d="m13.001 34.708 21.927-.124-19.024-10.9z"/><path fill="#FBDC94" d="M45.925 15.631 34.927 34.585l19.029-10.862z"/><path fill="#FBCB93" d="m54.011 23.724-19.084 10.86 21.958.172z"/><path fill="#A297C7" d="m24.189 53.698 10.738-19.114-18.886 11.14z"/><path fill="#D28EA5" d="m46.172 53.394-11.244-18.81.275 21.918z"/><path fill="#BE9BC8" d="m35.159 56.502-.232-21.918-10.808 19.074z"/><path fill="#F59993" d="M53.829 45.767 34.927 34.585l11.236 18.814z"/><g transform="translate(34.333 34.502)"><mask id="b" fill="#fff"><use xlink:href="#a"/></mask><path fill="#F7AA94" mask="url(#b)" d="M22.562.285.594.082l18.902 11.184z"/></g><path fill="#9EADD3" d="m16.042 45.726 18.886-11.142L13 34.739z"/><path fill="#F9F4A1" d="m34.925 17.82.007 16.764 8.413-14.496z"/><path fill="#B1D5A2" d="m20.378 26.253 14.554 8.331-8.402-14.511z"/><path fill="#E5ED9F" d="m26.559 20.057 8.373 14.527.055-16.764z"/><path fill="#8AC7E6" d="m18.161 34.679 16.771-.095-14.551-8.337z"/><path fill="#FBDC94" d="m43.344 20.087-8.412 14.497 14.555-8.307z"/><path fill="#FBCB93" d="m49.528 26.278-14.596 8.306 16.795.132z"/><path fill="#A297C7" d="m26.719 49.203 8.213-14.619-14.446 8.521z"/><path fill="#D28EA5" d="m43.532 48.971-8.6-14.387.211 16.764z"/><path fill="#BE9BC8" d="m35.109 51.348-.177-16.764-8.267 14.589z"/><path fill="#F59993" d="m49.39 43.138-14.458-8.554 8.594 14.392z"/><path fill="#F7AA94" d="m51.734 34.739-16.802-.155 14.458 8.554z"/><path fill="#9EADD3" d="m20.487 43.106 14.445-8.522-16.771.118z"/><g style="mix-blend-mode:multiply"><path fill="#F9F4A1" d="m34.919 12.667.008 21.918 11-18.953z"/><path fill="#B1D5A2" d="m15.899 23.693 19.029 10.892-10.986-18.972z"/><path fill="#E5ED9F" d="m23.981 15.592 10.946 18.992.072-21.917z"/><path fill="#8AC7E6" d="m13.001 34.708 21.927-.124-19.024-10.9z"/><path fill="#FBDC94" d="M45.925 15.631 34.927 34.585l19.029-10.862z"/><path fill="#FBCB93" d="m54.011 23.724-19.084 10.86 21.958.172z"/><path fill="#A297C7" d="m24.189 53.698 10.738-19.114-18.886 11.14z"/><path fill="#D28EA5" d="m46.172 53.394-11.244-18.81.275 21.918z"/><path fill="#BE9BC8" d="m35.159 56.502-.232-21.918-10.808 19.074z"/><path fill="#F59993" d="M53.829 45.767 34.927 34.585l11.236 18.814z"/><g transform="translate(34.333 34.502)"><mask id="d" fill="#fff"><use xlink:href="#c"/></mask><path fill="#F7AA94" mask="url(#d)" d="M22.562.285.594.082l18.902 11.184z"/></g><path fill="#9EADD3" d="m16.042 45.726 18.886-11.142L13 34.739z"/><path fill="#F9F4A1" d="m34.925 17.82.007 16.764 8.413-14.496z"/><path fill="#B1D5A2" d="m20.378 26.253 14.554 8.331-8.402-14.511z"/><path fill="#E5ED9F" d="m26.559 20.057 8.373 14.527.055-16.764z"/><path fill="#8AC7E6" d="m18.161 34.679 16.771-.095-14.551-8.337z"/><path fill="#FBDC94" d="m43.344 20.087-8.412 14.497 14.555-8.307z"/><path fill="#FBCB93" d="m49.528 26.278-14.596 8.306 16.795.132z"/><path fill="#A297C7" d="m26.719 49.203 8.213-14.619-14.446 8.521z"/><path fill="#D28EA5" d="m43.532 48.971-8.6-14.387.211 16.764z"/><path fill="#BE9BC8" d="m35.109 51.348-.177-16.764-8.267 14.589z"/><path fill="#F59993" d="m49.39 43.138-14.458-8.554 8.594 14.392z"/><path fill="#F7AA94" d="m51.734 34.739-16.802-.155 14.458 8.554z"/><path fill="#9EADD3" d="m20.487 43.106 14.445-8.522-16.771.118z"/></g></g></symbol>
<symbol id="icon-casambi-grouplights" viewBox="0 0 70 70"><g fill="none" fill-rule="evenodd"><circle cx="35" cy="35" r="34.5" fill="#FFF" stroke="#EAEAEA"/><rect width="33" height="33" x="19" y="19" fill="#878787" rx="5"/><circle cx="43.5" cy="27.5" r="4.5" fill="#FFF"/><circle cx="27.5" cy="27.5" r="4.5" fill="#FFF"/><circle cx="43.5" cy="43.5" r="4.5" fill="#FFF"/><circle cx="27.5" cy="43.5" r="4.5" fill="#FFF"/></g></symbol>
<symbol id="icon-casambi-groups" viewBox="0 0 70 70"><g fill="none" fill-rule="evenodd"><circle cx="35" cy="35" r="34.5" fill="#FFF" stroke="#EAEAEA"/><path stroke="#CBCCCC" stroke-dasharray=".042 5.07" stroke-linecap="round" stroke-linejoin="round" stroke-width="1.267" d="M58.072 31.554c1.817 12.835-7.115 24.713-19.95 26.53-12.834 1.818-24.713-7.113-26.53-19.949C9.774 25.3 18.706 13.422 31.54 11.605c12.835-1.818 24.713 7.113 26.53 19.949Z"/><mask id="b" fill="#fff"><use xlink:href="#a"/></mask><path fill="#F1F1F1" mask="url(#b)" d="M51.217 16.654h.205V5.36h-.205z"/><path fill="#CBCCCC" d="M59.436 24.727c-.902-4.055-3.47-3.77-4.884-4.636-.457-.281-.815-1.131-.778-1.624.046-.599.168-.97.168-1.618a2.624 2.624 0 0 0-2.374-2.612v-.493h-.502v.493a2.624 2.624 0 0 0-2.373 2.612c0 .647.167 1.006.21 1.604.04.545-.463 1.498-.966 1.785-1.394.795-3.768.492-4.728 4.489-.468 1.943.995 7.935.995 7.935H58.44s1.43-5.984.996-7.935" mask="url(#b)"/><path fill="#878787" d="M58.422 32.777c0 .427-3.18.773-7.105.773-3.924 0-7.105-.346-7.105-.773 0-.427 3.181-.773 7.105-.773 3.924 0 7.105.346 7.105.773" mask="url(#b)"/><path fill="#CBCCCC" d="M36.858 17.983v-.009h-.002c-.017-.237-.362-.462-.974-.667L25.2 10.384v-.611h-.169V2h-.25v7.773h-.169v.636l-10.68 6.898c-.613.204-.959.43-.976.667l-.001.009-.002.01c0 .015.005.03.008.045l.579 5.101h22.733l.579-5.101c.002-.015.007-.03.007-.046l-.001-.01Z" mask="url(#b)"/><path fill="#878787" d="M36.314 23.004c0 .943-5.108 1.707-11.408 1.707S13.5 23.947 13.5 23.004c0-.943 5.107-1.708 11.407-1.708s11.408.765 11.408 1.708" mask="url(#b)"/><path fill="#CBCCCC" mask="url(#b)" d="M25.084 55.614h.929V30.93h-.929zM25.727 29.581l-.343.864 8.615 3.416.342-.863z"/><path fill="#CBCCCC" d="M25.897 31.814H25.2a1.698 1.698 0 0 1-1.693-1.692v-.698c0-.93.762-1.692 1.693-1.692h.698c.931 0 1.693.762 1.693 1.692v.698c0 .93-.762 1.692-1.693 1.692" mask="url(#b)"/><path fill="#FFF" d="M25.72 30.776h-.344a.834.834 0 0 1-.83-.832v-.342c0-.458.373-.832.83-.832h.343c.458 0 .832.374.832.832v.342a.834.834 0 0 1-.832.832" mask="url(#b)"/><path fill="#CBCCCC" d="M35.04 46.466c-2.391-4.058-3.823-12.344-.662-14.208 3.16-1.862 9.717 3.403 12.108 7.461L35.04 46.466Z" mask="url(#b)"/><path fill="#878787" d="m38.943 44.166-3.903 2.3c-2.391-4.058-3.823-12.344-.663-14.207 0 0-.443 2.154 1.128 5.976 1.093 2.66 3.438 5.93 3.438 5.93" mask="url(#b)"/><path fill="#CBCCCC" d="M29.862 59.089v-1.861a2.46 2.46 0 0 0-2.453-2.454h-3.722a2.46 2.46 0 0 0-2.453 2.454v1.86h8.628Z" mask="url(#b)"/><path fill="#878787" d="M26.12 54.774h-2.433a2.46 2.46 0 0 0-2.453 2.454v1.86h2.168s.012-.877.127-2.242c.148-1.741 2.59-2.072 2.59-2.072" mask="url(#b)"/></g></symbol>
<symbol id="icon-casambi-scene" viewBox="0 0 70 70"><g fill="none" fill-rule="evenodd"><circle cx="35" cy="35" r="34.5" fill="#FFF" stroke="#EAEAEA"/><g transform="translate(18 18.595)"><mask id="b" fill="#fff"><use xlink:href="#a"/></mask><path fill="#878787" d="M3.022 11.164a.757.757 0 1 1 0-1.513.757.757 0 0 1 0 1.513Zm4.84-.832 25.276-5.367-.817-3.85a1.367 1.367 0 0 0-1.616-1.05L1.08 6.352A1.367 1.367 0 0 0 .03 7.969l.69 3.247V30.47a2.278 2.278 0 0 0 2.27 2.27h28.42a2.278 2.278 0 0 0 2.271-2.27V10.332H7.861Z" mask="url(#b)"/></g><path stroke="#FFF" stroke-width=".721" d="M21.022 42.478h28.391M21.022 33.393h28.391M35.218 49.915v-6.646M35.218 41.284v-6.645"/><path fill="#FFF" d="m44.349 25.004-2.816.598.374-5.504 2.817-.597z"/><g fill="#FFF"><path d="m49.175 23.982-2.816.598.374-5.504 1.905-.405s.256-.07.547-.027c.153.023.347.097.347.097l-.357 5.24ZM39.48 26.04l-2.816.598.374-5.504 2.817-.597zM34.583 27.076l-2.817.598.374-5.504 2.817-.597zM29.756 28.098l-2.816.598.374-5.504 2.817-.597zM25.327 29.035l-2.816.598.374-5.504 2.817-.597zM28.574 33.242l-2.88-.004 1.229-4.282 2.88.005zM33.4 33.242l-2.879-.004 1.228-4.282 2.88.005zM38.227 33.242l-2.88-.004 1.229-4.282 2.88.005zM43.053 33.242l-2.879-.004 1.228-4.282 2.88.005zM47.879 33.242 45 33.238l1.228-4.282 2.88.005z"/></g></g></symbol>
<symbol id="icon-casambi-sensors" viewBox="0 0 70 70"><g fill="none" fill-rule="evenodd"><circle cx="35" cy="35" r="34.5" fill="#FFF" stroke="#EAEAEA"/><g opacity=".494" transform="translate(22.75 23.416)"><mask id="b" fill="#fff"><use xlink:href="#a"/></mask><path fill="#000" fill-opacity=".25" mask="url(#b)" d="m18.117 22.359-4.85-1.267-4.325 2.534-2.534-4.325-4.85-1.267 1.267-4.85L.291 8.859l4.325-2.533 1.266-4.85 4.85 1.266L15.057.209l2.534 4.325 4.85 1.266-1.267 4.85 2.534 4.325-4.325 2.534z"/></g><g opacity=".509" transform="translate(14 14.082)"><mask id="d" fill="#fff"><use xlink:href="#c"/></mask><path fill="#000" fill-opacity=".25" mask="url(#d)" d="m15.498 42-4.539-7.615-8.595-2.176 2.176-8.595L0 15.999l7.615-4.539 2.176-8.595 8.595 2.176 7.615-4.54 4.539 7.616 8.595 2.175-2.175 8.595 4.539 7.615-7.616 4.539-2.175 8.595-8.595-2.175z"/><path fill="#000" fill-opacity=".25" mask="url(#d)" d="m15.498 42-4.539-7.615-8.595-2.176 2.176-8.595L0 15.999l7.615-4.539 2.176-8.595 8.595 2.176 7.615-4.54 4.539 7.616 8.595 2.175-2.175 8.595 4.539 7.615-7.616 4.539-2.175 8.595-8.595-2.175z"/></g><g opacity=".512" transform="translate(18.083 18.749)"><mask id="f" fill="#fff"><use xlink:href="#e"/></mask><path fill="#000" fill-opacity=".5" mask="url(#f)" d="m19.135 32.871-5.493-4.047-6.746 1.022L5.873 23.1.379 19.053l4.047-5.493-1.022-6.747L10.15 5.79 14.197.297l5.493 4.047 6.747-1.023 1.023 6.747 5.493 4.047-4.047 5.493 1.023 6.746-6.747 1.024z"/></g><circle cx="35" cy="35" r="7" fill="#FFF"/></g></symbol>
<symbol id="icon-casambi-switch" viewBox="0 0 70 70"><g fill="none" fill-rule="evenodd"><circle cx="35" cy="35" r="34.5" fill="#FFF" stroke="#EAEAEA"/><g transform="translate(22 16.358)"><g transform="translate(4.919)"><mask id="b" fill="#fff"><use xlink:href="#a"/></mask><path fill="#CBCCCC" mask="url(#b)" d="M.27.345h15.36-2.472z"/></g><g transform="translate(9.838 28.108)"><mask id="d" fill="#fff"><use xlink:href="#c"/></mask><path fill="#878787" d="M5.72.36h10.385c0 4.458-2.323 8.072-5.19 8.072H.53c2.866 0 5.19-3.614 5.19-8.072" mask="url(#d)"/></g><mask id="f" fill="#fff"><use xlink:href="#e"/></mask><path fill="#878787" mask="url(#f)" d="M15.557 28.468h10.386V8.418H15.557zM10.368.345h10.386c2.866 0 5.189 3.614 5.189 8.072H15.558c0-4.458-2.324-8.072-5.19-8.072"/><path fill="#CBCCCC" d="M0 8.417C0 3.96 2.323.345 5.19.345h12.887c2.866 0 5.19 3.614 5.19 8.072v20.05c0 4.46-2.324 8.073-5.19 8.073H5.189C2.323 36.54 0 32.926 0 28.468V8.418Z" mask="url(#f)"/></g><path fill="#878787" d="m36.925 39.625-7.866-7.659-3.606-3.284 3.178-2.85 8.2 4.926z"/><path fill="#FFF" d="m30.177 33.506 4.179-.059 2.588 6.179-4.001-.04z"/><path fill="#FFF" d="m24.929 29.331 3.499-.145 5.966 4.276-4.158.063z"/><path fill="#FFF" d="M24.911 29.323h3.697v-3.514h-3.697z"/></g></symbol>
<symbol id="icon-center" viewBox="0 0 27 27"><path d="M18.446 17.022 27 25.577 25.577 27l-8.555-8.554v4.615H15.01V15.01h8.05v2.012h-4.614Zm-1.424-8.468L25.577 0 27 1.423l-8.554 8.555h4.615v2.012H15.01V3.94h2.012v4.615ZM8.554 9.978 0 1.423 1.423 0l8.555 8.554V3.94h2.012v8.051H3.94V9.978h4.614Zm1.424 8.468L1.423 27 0 25.577l8.554-8.555H3.94V15.01h8.051v8.051H9.978v-4.615Z"/></symbol>
<symbol id="icon-charging-port" viewBox="0 0 23 22"><path d="m14 7-1.2 2.3-.3.6h3.4v.1c.7.2 1 1.3.5 2L10 21c-.2.2-.3.3-.5.3S9 21 9 20.8v-.2l1.8-6.2H8.2c-1 0-1.7-1.4-1.2-2.5l1-2.3.3-.6 1-2 .4-1 .4-1H15l-1 2Zm4-7a5 5 0 0 1 0 10h-.6A2 2 0 0 0 16 9h2a4 4 0 1 0 0-8H5a4 4 0 1 0 0 8h2.2l-.4 1H5A5 5 0 1 1 5 0h13Zm0 3a2 2 0 1 1 0 4h-2.9l.5-1H18a1 1 0 0 0 0-2H5a1 1 0 1 0 0 2h3.6L8 7H5a2 2 0 1 1 0-4h13Z"/></symbol>
<symbol id="icon-chevron" viewBox="0 0 7 10"><path d="m.634 9.867-.528-.501A.309.309 0 0 0 0 9.136a.309.309 0 0 0 .106-.23l4.154-3.94L.106 1.029A.309.309 0 0 0 0 .799a.309.309 0 0 0 .106-.23L.634.067a.343.343 0 0 0 .487 0l4.927 4.67a.31.31 0 0 0 .106.23.309.309 0 0 0-.106.23l-4.927 4.67a.343.343 0 0 0-.487 0z" fill="#9B9B9B"/></symbol>
<symbol id="icon-choose-direction" viewBox="0 0 18 17"><path d="M10.03 10v6.97h-2V10H3.121l1.47 1.47-1.06 1.06L0 9l3.53-3.53 1.061 1.06L3.121 8h4.91V3.091l-1.47 1.47L5.5 3.5 9.03-.03l3.53 3.53-1.06 1.06-1.47-1.469V8h4.91l-1.47-1.47 1.06-1.06L18.06 9l-3.53 3.53-1.06-1.06L14.94 10h-4.91Z"/></symbol>
<symbol id="icon-close-small" viewBox="0 0 10 10"><path d="M8.94 0 10 1.06 6.06 5 10 8.94 8.94 10 5 6.06 1.06 10 0 8.94 3.939 5 0 1.06 1.06 0 5 3.939 8.94 0Z"/></symbol>
<symbol id="icon-close" viewBox="0 0 20 20"><path d="m17.778.808 1.414 1.414L11.414 10l7.778 7.778-1.414 1.414L10 11.414l-7.778 7.778-1.414-1.414L8.586 10 .808 2.222 2.222.808 10 8.586 17.778.808Z"/></symbol>
<symbol id="icon-cross" viewBox="0 0 18 15"><path d="M13.459 12.032c-1.194-.994-2.268-2.138-3.319-3.334a68.734 68.734 0 0 1 3.047-3.769 34.8 34.8 0 0 1 1.852-1.944c.66-.621 1.337-1.238 2.168-1.763-.495-.067-1.008-.02-1.5.076-.498.09-.976.243-1.45.415-.943.357-1.818.856-2.645 1.415-1.301.91-2.45 2.001-3.46 3.193a221.48 221.48 0 0 1-1.629-2.044C5.393 2.867 4.268 1.43 2.953 0c.058.979.271 1.917.53 2.837.265.918.602 1.81.993 2.681a20.91 20.91 0 0 0 1.831 3.237l-.122.175c-.126.186-.272.349-.398.532l-.394.536-.406.518c-.267.354-.547.685-.828 1.022-.567.66-1.154 1.305-1.815 1.866-.331.273-.677.55-1.06.768-.095.064-.194.106-.294.16-.1.056-.203.1-.309.14-.212.096-.434.16-.681.19.43.271.976.341 1.494.335.531 0 1.04-.12 1.547-.262 1.002-.31 1.899-.831 2.728-1.415l.607-.457c.2-.156.376-.329.566-.493.184-.168.379-.331.55-.51l.514-.536c.072-.073.14-.147.207-.221 1.132 1.178 2.444 2.225 3.966 2.962 1.79.894 3.991 1.257 5.843.597a13.978 13.978 0 0 1-4.563-2.63" fill="#DD5D5A" fill-rule="evenodd"/></symbol>
<symbol id="icon-cuts" viewBox="0 0 15 14"><path d="M15 2.323c-.693-.99-2.071-1.251-3.061-.558l-5.09 3.564-1.852-1.296a2.678 2.678 0 1 0-1.126 1.06L6.138 6.68 3.87 8.267a2.678 2.678 0 1 0 1.126 1.06L6.848 8.03l5.09 3.564c.99.694 2.369.432 3.062-.557L8.777 6.68 15 2.323ZM2.684 4.088a1.388 1.388 0 1 1 0-2.777 1.388 1.388 0 0 1 0 2.777Zm0 7.96a1.388 1.388 0 1 1 0-2.777 1.388 1.388 0 0 1 0 2.777Z"/></symbol>
<symbol id="icon-decorative-toggle" viewBox="0 0 20 20"><path d="M17 0a3 3 0 0 1 3 3v14a3 3 0 0 1-3 3H3a3 3 0 0 1-3-3V3a3 3 0 0 1 3-3h14Zm0 1H3a2 2 0 0 0-2 2v14a2 2 0 0 0 2 2h14a2 2 0 0 0 2-2V3a2 2 0 0 0-2-2ZM9 11v6H3v-6h6Zm8 0v6h-6v-6h6ZM9 3v6H3V3h6Zm8 0v6h-6V3h6Z"/></symbol>
<symbol id="icon-dimensions" viewBox="0 0 26 27"><path d="M25.667 8.49 7.99 26.166 2.333 20.51 20.01 2.833l5.657 5.656Zm-2.121 0L20.01 4.953l-1.06 1.06 2.475 2.475-.707.708-2.475-2.475-1.415 1.414 1.768 1.768-.707.707-1.768-1.768-1.413 1.413 2.474 2.476-.707.707L14 10.964l-1.414 1.414 1.767 1.768-.708.707-1.767-1.768-1.415 1.415 2.475 2.475-.707.707-2.475-2.475-1.414 1.414 1.768 1.768-.707.707-1.768-1.768-1.414 1.414 2.475 2.475-.707.707-2.475-2.474-1.06 1.06 3.535 3.536L23.546 8.489ZM1 13v3h3v1H0v-4h1Zm2.732-.51.778.778-2.121 2.12-.778-.777 2.121-2.121ZM6.561 9.66l.778.778-2.122 2.121-.777-.777L6.56 9.66Zm2.828-2.828.778.778-2.121 2.121-.778-.778 2.121-2.121Zm2.829-2.829.778.778-2.122 2.122-.778-.778 2.122-2.122Zm2.828-2.828.778.778-2.121 2.121-.778-.778 2.121-2.12ZM17 0v4h-1V1h-3V0h4Z"/></symbol>
<symbol id="icon-dimmable" viewBox="0 0 24 25"><g data-name="Layer 2"><path d="M6.46 7a12.46 12.46 0 0 1 1.3-1.27L3.25 0a17.2 17.2 0 0 0 4.29 24.27l.22.15A12.16 12.16 0 0 1 6.46 7Zm3.84 2.17a.52.52 0 0 0-.68-.08.49.49 0 0 0 0 .67L14 15.42a.49.49 0 0 0 0-.67Zm4.6-3.09v-.33a9.33 9.33 0 0 0-9.2 9.48v.35A9.34 9.34 0 0 0 14.9 25a8.91 8.91 0 0 1-8.5-9.08 8.91 8.91 0 0 1 8.5-9.08 8.91 8.91 0 0 1 8.5 9.08A8.91 8.91 0 0 1 14.9 25a9.33 9.33 0 0 0 9.1-9.42 9.33 9.33 0 0 0-9.1-9.5Z" data-name="Layer 1"/></g></symbol>
<symbol id="icon-direct-download" viewBox="0 0 15 19"><path d="M11.538 12.75a.564.564 0 0 0-.17-.41.551.551 0 0 0-.406-.173.551.551 0 0 0-.406.173.564.564 0 0 0-.171.41c0 .158.057.295.17.41.115.116.25.173.407.173a.551.551 0 0 0 .405-.173.564.564 0 0 0 .171-.41Zm2.308 0a.564.564 0 0 0-.171-.41.551.551 0 0 0-.406-.173.551.551 0 0 0-.405.173.564.564 0 0 0-.172.41c0 .158.057.295.172.41.114.116.249.173.405.173a.551.551 0 0 0 .406-.173.564.564 0 0 0 .171-.41ZM15 10.708v2.917c0 .243-.084.45-.252.62a.83.83 0 0 1-.613.255H.865a.83.83 0 0 1-.613-.255.849.849 0 0 1-.252-.62v-2.917c0-.243.084-.45.252-.62a.83.83 0 0 1 .613-.255h4.192l1.217 1.24c.349.34.757.51 1.226.51s.877-.17 1.226-.51l1.226-1.24h4.183a.83.83 0 0 1 .613.256c.168.17.252.376.252.62Zm-2.93-5.186c.102.25.06.462-.126.638l-4.038 4.083a.533.533 0 0 1-.406.174.533.533 0 0 1-.406-.174L3.056 6.16c-.186-.176-.228-.389-.126-.638a.539.539 0 0 1 .532-.355h2.307V1.083c0-.158.057-.294.172-.41A.551.551 0 0 1 6.346.5h2.308c.156 0 .291.058.405.173a.564.564 0 0 1 .172.41v4.084h2.307c.253 0 .43.118.532.355Z"/></symbol>
<symbol id="icon-doc-download" viewBox="0 0 15 18"><path d="M14.336 3.817c.182.187.338.442.469.763.13.322.195.616.195.884v11.572a.944.944 0 0 1-.273.683.892.892 0 0 1-.665.281H.938a.892.892 0 0 1-.665-.281.944.944 0 0 1-.273-.683V.964C0 .696.091.47.273.281A.892.892 0 0 1 .937 0h8.75c.26 0 .547.067.86.2.312.135.56.296.742.483l3.047 3.134ZM10 1.367v3.776h3.672c-.065-.194-.137-.332-.215-.412L10.4 1.587c-.078-.08-.211-.154-.4-.22Zm3.75 15.347V6.43H9.687a.892.892 0 0 1-.664-.282.944.944 0 0 1-.273-.683V1.286h-7.5v15.428h12.5Zm-6.67-4.053V7.2c0-.11.09-.2.2-.2h.44c.11 0 .2.09.2.2v5.46l1.943-1.998A.187.187 0 0 1 10 10.6c.052 0 .098.02.138.062l.301.31a.198.198 0 0 1 0 .284l-2.802 2.882a.187.187 0 0 1-.138.062.188.188 0 0 1-.138-.062L4.56 11.256a.198.198 0 0 1 0-.285l.3-.31a.187.187 0 0 1 .139-.06c.052 0 .098.02.138.06l1.943 2Z"/></symbol>
<symbol id="icon-doc-pdf" viewBox="0 0 15 19"><path d="M14.45 3.856 11.171.585a1.877 1.877 0 0 0-1.324-.55H1.875A1.88 1.88 0 0 0 0 1.91V17.13C0 18.162.84 19 1.875 19h11.25A1.874 1.874 0 0 0 15 17.129V5.18c0-.495-.2-.974-.55-1.325Zm-1.477 1.173H10V2.062l2.973 2.967ZM1.875 17.13V1.91h6.25v4.055c0 .518.418.936.938.936h4.062v10.228H1.875Zm9.773-4.603c-.476-.468-1.835-.339-2.515-.253-.672-.41-1.121-.975-1.438-1.805.153-.628.395-1.583.211-2.183-.164-1.022-1.476-.92-1.664-.23-.172.627-.015 1.5.274 2.616-.391.931-.973 2.183-1.383 2.9-.781.402-1.836 1.022-1.992 1.801-.13.616 1.015 2.152 2.972-1.216.875-.289 1.828-.643 2.672-.784.738.398 1.602.663 2.18.663.996 0 1.094-1.1.683-1.509ZM3.91 15.56c.2-.534.957-1.15 1.188-1.364-.743 1.181-1.188 1.392-1.188 1.364Zm3.258-5.84c-.172-.542-.168-1.59-.07-1.59.289 0 .261 1.251.07 1.59Zm-.059 1.603c.325.588.739 1.06 1.176 1.384-.812.167-1.52.51-2.14.748.378-.659.703-1.442.964-2.132Zm4.176 1.937s-.195.234-1.457-.304c1.371-.101 1.598.21 1.457.304Z"/></symbol>
<symbol id="icon-doc" viewBox="0 0 15 19"><path d="M14.45 3.856 11.171.585a1.877 1.877 0 0 0-1.324-.55H1.875A1.88 1.88 0 0 0 0 1.91V17.13C0 18.162.84 19 1.875 19h11.25A1.874 1.874 0 0 0 15 17.129V5.18c0-.495-.2-.974-.55-1.325Zm-1.477 1.173H10V2.062l2.973 2.967ZM1.875 17.13V1.91h6.25v4.055c0 .518.418.936.938.936h4.062v10.228H1.875Z"/></symbol>
<symbol id="icon-driver" viewBox="0 0 318 60"><path class="st0" d="M14.3 59.8 12.8 48l3.5 1.1 6-18.3-22.1 8L15.3.7H25L9.1 30.4l22-6.7-12 26.4 3.3 1.1-8.1 8.6zm-.1-10.1.9 7.6 5.2-5.5-2.8-1 11.6-25.2-22.3 6.7L23.1 1.8h-7l-13.8 35 22-7.9-7.1 21.6-3-.8zM36.5 14.1l3.1-1.9h.8v14.2h-1.2V13.8l-2.7 1.5v-1.2zM49 12c3.5 0 4.8 3.1 4.8 7.3 0 4.2-1.3 7.3-4.8 7.3s-4.8-3.1-4.8-7.3c0-4.2 1.3-7.3 4.8-7.3zm0 13.4c2.6 0 3.5-2.6 3.5-6.1 0-3.5-.9-6.1-3.5-6.1s-3.5 2.6-3.5 6.1c-.1 3.5.8 6.1 3.5 6.1zM60.9 12c3.5 0 4.8 3.1 4.8 7.3 0 4.2-1.3 7.3-4.8 7.3s-4.8-3.1-4.8-7.3c.1-4.2 1.3-7.3 4.8-7.3zm0 13.4c2.6 0 3.5-2.6 3.5-6.1 0-3.5-.9-6.1-3.5-6.1s-3.5 2.6-3.5 6.1c0 3.5.9 6.1 3.5 6.1zM73.8 20.8v1h-5.3v-1h5.3zM36.3 35.5c.4-1.8 1.9-3.2 3.9-3.2 2.4 0 4 1.7 4 4 0 1.3-.5 2.3-1.7 3.7l-4.6 5.5h6.4v1.2H36V46l5.4-6.5c1.2-1.4 1.5-2.2 1.5-3.1 0-1.7-1.2-2.9-2.8-2.9-1.5 0-2.6 1-2.9 2.5l-.9-.5zM53.1 43h-7.2v-.7l7.6-9.8h.8v9.4h2.3V43h-2.3v3.6h-1.2V43zm0-1.2v-6.9l-5.4 6.9h5.4zM63.1 32.2c3.5 0 4.8 3.1 4.8 7.3 0 4.2-1.3 7.3-4.8 7.3s-4.8-3.1-4.8-7.3c0-4.2 1.3-7.3 4.8-7.3zm0 13.5c2.6 0 3.5-2.6 3.5-6.1s-.9-6.1-3.5-6.1-3.5 2.6-3.5 6.1.8 6.1 3.5 6.1zM81.6 32.4l-5.8 14.2H75l-5.8-14.2h1.3l4.9 12.1 4.9-12.1h1.3zM221.8 48.9h-84v-37h84v37zm-82.9-1.2h81.7V13.1h-81.7v34.6z"/><path class="st0" d="M159.6 34.8c-.9.6-2 1-3.7 1h-3V25.2h3c1.7 0 2.8.4 3.7 1 1.3 1 2.1 2.6 2.1 4.3s-.8 3.3-2.1 4.3zm-.5-7.9c-.8-.6-1.7-.9-3.2-.9h-2.1v8.9h2.1c1.5 0 2.5-.3 3.2-.9 1-.8 1.7-2.1 1.7-3.6s-.7-2.7-1.7-3.5zM171.6 35.8l-4.1-5.4h-1.8v5.4h-.9V25.2h3.6c1 0 1.6.3 2.1.7.5.5.8 1.2.8 1.9 0 .8-.3 1.4-.8 1.9-.4.4-1 .7-1.9.7l4.1 5.4h-1.1zm-3.2-6.3c.8 0 1.2-.2 1.5-.5.3-.3.6-.8.6-1.3s-.2-1-.6-1.3c-.3-.3-.7-.5-1.5-.5h-2.7v3.5h2.7zM175.3 25.2h.9v10.6h-.9V25.2zM188.3 25.2 184 35.8h-.6L179 25.2h.9l3.7 9.1 3.7-9.1h1zM191.9 26v3.5h3.8v.9h-3.8V35h5v.9H191V25.2h5.8v.8h-4.9zM206.9 35.8l-4.1-5.4H201v5.4h-.9V25.2h3.6c1 0 1.6.3 2.1.7.5.5.8 1.2.8 1.9 0 .8-.3 1.4-.8 1.9-.4.4-1 .7-1.9.7l4.1 5.4h-1.1zm-3.2-6.3c.8 0 1.2-.2 1.5-.5.3-.3.6-.8.6-1.3s-.2-1-.6-1.3c-.3-.3-.7-.5-1.5-.5H201v3.5h2.7zM283.7 34.9h5v.9h-5.9V25.2h.9v9.7zM291.6 26v3.5h3.8v.9h-3.8V35h5v.9h-5.9V25.2h5.8v.8h-4.9zM305.6 34.8c-.9.6-2 1-3.7 1h-3V25.2h3c1.7 0 2.8.4 3.7 1 1.3 1 2.1 2.6 2.1 4.3s-.8 3.3-2.1 4.3zm-.5-7.9c-.8-.6-1.7-.9-3.2-.9h-2.1v8.9h2.1c1.5 0 2.5-.3 3.2-.9 1-.8 1.7-2.1 1.7-3.6s-.7-2.7-1.7-3.5z"/><path class="st0" d="M294.3 48.9c-10.2 0-18.5-8.3-18.5-18.5s8.3-18.5 18.5-18.5 18.5 8.3 18.5 18.5-8.3 18.5-18.5 18.5zm0-35.9c-9.6 0-17.4 7.8-17.4 17.4 0 9.6 7.8 17.4 17.4 17.4 9.6 0 17.4-7.8 17.4-17.4 0-9.6-7.8-17.4-17.4-17.4z"/><path class="st1" d="M223.1 28.3h51.3v1.2h-51.3zM223.1 31.3h51.3v1.2h-51.3zM85.2 28.3h51.3v1.2H85.2zM85.2 31.3h51.3v1.2H85.2z"/><path class="st0" d="M294.5 1.1h.9v6.8h-.9z"/><path transform="rotate(-25.684 283.133 6.107)" class="st0" d="M282.6 2.7h1.2v6.8h-1.2z"/><path transform="rotate(-54.393 274.436 12.48)" class="st0" d="M273.8 9.1h1.2v6.8h-1.2z"/><path transform="rotate(-64.316 306.024 6.225)" class="st0" d="M302.6 5.6h6.8v1.2h-6.8z"/><path transform="rotate(-35.59 314.736 12.598)" class="st0" d="M311.4 12h6.8v1.2h-6.8z"/></symbol>
<symbol id="icon-edit" viewBox="0 0 13 13"><path d="M6 2v1.1H2c-.5 0-.9.4-.9.9v7c0 .5.4.8.9.8h7c.5 0 .8-.3.8-.8V7H11v4a2 2 0 0 1-2 2H2a2 2 0 0 1-2-2V4c0-1.1.9-2 2-2h4Zm3.6-.5 1.9 2-5 4.9-2.3.6a.2.2 0 0 1-.1 0v-.3l.5-2.2 5-5ZM10.8.3a1 1 0 0 1 1.4 0l.5.5a1 1 0 0 1 0 1.4L12 3l-1.9-2Z"/></symbol>
<symbol id="icon-end-caps" viewBox="0 0 16 12"><path d="M11 10V3a1 1 0 0 0-1-1H6a1 1 0 0 0-1 1v7H3V1a1 1 0 0 1 1-1h8a1 1 0 0 1 1 1v9h-2ZM8 7.5a1.5 1.5 0 1 1 0-3 1.5 1.5 0 0 1 0 3ZM1 10h14a1 1 0 0 1 0 2H1a1 1 0 0 1 0-2Z"/></symbol>
<symbol id="icon-exit" viewBox="0 0 17 17"><g data-name="Layer 2"><path d="m9.7 8.5 7.06-7.06a.85.85 0 0 0-1.2-1.2L8.5 7.3 1.45.25a.85.85 0 0 0-1.2 1.2L7.3 8.5.25 15.56a.85.85 0 1 0 1.2 1.2L8.5 9.7l7.06 7.06a.85.85 0 1 0 1.2-1.2Z" data-name="Layer 1"/></g></symbol>
<symbol id="icon-expand-white" viewBox="0 0 17 17"><g data-name="Layer 2"><path d="M16.11 7.61H9.4V.89a.89.89 0 1 0-1.79 0v6.72H.89a.89.89 0 1 0 0 1.79h6.72v6.71a.89.89 0 1 0 1.79 0V9.4h6.71a.89.89 0 1 0 0-1.79Z" data-name="Layer 1"/></g></symbol>
<symbol id="icon-expand" viewBox="0 0 17 17"><g data-name="Layer 2"><path d="M16.11 7.61H9.4V.89a.89.89 0 1 0-1.79 0v6.72H.89a.89.89 0 1 0 0 1.79h6.72v6.71a.89.89 0 1 0 1.79 0V9.4h6.71a.89.89 0 1 0 0-1.79Z" data-name="Layer 1"/></g></symbol>
<symbol id="icon-external" viewBox="0 0 11 11"><path fill-rule="evenodd" d="M10.32 0c.373 0 .677.304.677.678v3.781a.679.679 0 0 1-1.356 0V2.314L6.063 5.892a.673.673 0 0 1-.958 0 .673.673 0 0 1-.199-.48c0-.18.07-.35.199-.478l3.578-3.578H6.538a.679.679 0 0 1 0-1.356h3.781ZM7.79 9.835V6.399l1.162-1.162v5.179c0 .32-.26.581-.58.581H.58A.581.581 0 0 1 0 10.416v-7.79c0-.321.26-.582.581-.582H5.76L4.598 3.206H1.162v6.629h6.629Z"/></symbol>
<symbol id="icon-eye" viewBox="0 0 20 14"><path d="M19.88 6.16C17.995 2.486 14.267 0 10 0 5.732 0 2.003 2.487.12 6.16a1.123 1.123 0 0 0 0 1.014c1.884 3.674 5.612 6.16 9.88 6.16 4.268 0 7.997-2.488 9.88-6.16a1.123 1.123 0 0 0 0-1.014ZM10 11.667a5 5 0 1 1 0-10 5 5 0 0 1 0 10Zm0-8.334a3.31 3.31 0 0 0-.879.132 1.661 1.661 0 0 1-2.323 2.323A3.326 3.326 0 1 0 10 3.333Z"/></symbol>
<symbol id="icon-facebook" viewBox="0 0 10 20"><path d="M0 6.614h2.074v-2.01c0-.885.021-2.252.668-3.098C3.42.61 4.355 0 5.96 0c2.614 0 3.717.373 3.717.373L9.16 3.436s-.865-.25-1.67-.25c-.807 0-1.53.289-1.53 1.093v2.335h3.306l-.23 2.992H5.961V20H2.074V9.606H0V6.614Z"/></symbol>
<symbol id="icon-fire-rated" viewBox="0 0 21 25"><g data-name="Layer 2"><path d="M17.58 14.72s-1-2 .78-5.19c0 0-1.54-.3-3 2 0 0-.88-3.53.88-6.16 0 0-1.69-.15-3.8 2.23 0 0 1.15-3.06-1.58-7.55a14.17 14.17 0 0 1-1.23 5.14 9.47 9.47 0 0 0-.89 5A5.74 5.74 0 0 1 7.28 8c-.21-1-.41-1.68-.71-1.78 0 0-.94 4.58-.48 6.33a4.33 4.33 0 0 1-2.52-3s-.8 3.39.12 5.61c0 0-2.54-1.16-3.69-.88a5.05 5.05 0 0 1 1.92 3.35C3.2 25.64 9.59 25 9.59 25s-2.81-2.78-3.42-4.72c-.17-.5 1.83.56 1.83.56a11.72 11.72 0 0 1-1.44-4.72c.4 0 2 1.83 2 1.83a23.23 23.23 0 0 1-.15-4C8.74 14 10 15.53 10 15.53a11.47 11.47 0 0 1 .91-2.84 7 7 0 0 1 .92 2.54 3.42 3.42 0 0 1 1.23-1.82 7.84 7.84 0 0 1-.1 5.23 3.78 3.78 0 0 1 2.21-1.88 10 10 0 0 1-.31 3.49A1.46 1.46 0 0 1 16 19.9c-.76 3.33-4.42 5-4.42 5s5.24.81 7.34-5.56a21.64 21.64 0 0 0 .37-2.73c0-1.09.22-2.89 1.75-3.56-.04.05-1.2-.91-3.46 1.67Z" data-name="Layer 1"/></g></symbol>
<symbol id="icon-folder-add" viewBox="0 0 22 18"><path d="M6.176 0c.864 0 1.988.536 2.558 1.22l.588.71c.41.493 1.32.927 1.945.927h8.145c.973 0 1.764.833 1.764 1.857V7.76a6.95 6.95 0 0 0-2-.663V4.857h-7.91c-1.15 0-2.522-.621-3.339-1.487l-.146-.165-.583-.705c-.172-.206-.636-.44-.923-.49l-.1-.01H2v14l9.29.001c.215.723.544 1.396.966 2L1.764 18C.791 18 0 17.167 0 16.143V1.856C0 .833.792 0 1.764 0h4.412ZM19 10v3h3v2h-3v3h-2v-3h-3v-2h3v-3h2Z" fill="#FFF" fill-rule="nonzero"/></symbol>
<symbol id="icon-folder-added" viewBox="0 0 23 18"><path d="M6.176 0c.864 0 1.988.536 2.558 1.22l.588.71c.41.493 1.32.927 1.945.927h8.145c.973 0 1.764.833 1.764 1.857V7.76a6.95 6.95 0 0 0-2-.663V4.857h-7.91c-1.15 0-2.522-.621-3.339-1.487l-.146-.165-.583-.705c-.172-.206-.636-.44-.923-.49l-.1-.01H2v14l9.29.001c.215.723.544 1.396.966 2L1.764 18C.791 18 0 17.167 0 16.143V1.856C0 .833.792 0 1.764 0h4.412Zm14.852 10.525 1.414 1.414-5.656 5.657-3.536-3.535 1.414-1.415 2.122 2.122 4.242-4.243Z" fill="#FFF" fill-rule="nonzero"/></symbol>
<symbol id="icon-folder" viewBox="0 0 20 16"><path d="M18.333 16H1.666A1.66 1.66 0 0 1 0 14.35V1.65C0 .74.748 0 1.666 0h4.167c.816 0 1.878.476 2.416 1.084l.555.631c.388.44 1.247.825 1.837.825h7.692c.92 0 1.667.74 1.667 1.65v10.16c0 .91-.748 1.65-1.667 1.65Z"/></symbol>
<symbol id="icon-glass" viewBox="0 0 30 30"><path fill="#1d1d1b" d="M18.91 5.09h-9l-.07.12c-.08.13-2.06 3.34-1 6.47a7 7 0 0 0 4.3 4.12v5.43l-2.43 1.44v1.14h7.49v-1.15l-2.43-1.44V15.8A7 7 0 0 0 20 11.68c1-3.13-1-6.33-1-6.47Zm.63 6.43c-.55 1.68-2 3-4.17 3.88l-.16.06v6l2.43 1.44v.36h-6.49V23l2.43-1.44v-6l-.16-.06c-2.22-.89-3.62-2.19-4.17-3.87-.85-2.59.58-5.34.91-5.94h8.45c.39.5 1.78 3.25.94 5.84ZM14.41.33a14.13 14.13 0 1 0 14.13 14.13A14.15 14.15 0 0 0 14.41.33Zm0 27.76A13.63 13.63 0 1 1 28 14.46a13.65 13.65 0 0 1-13.59 13.63Z"/></symbol>
<symbol id="icon-gold" viewBox="0 0 30 40"><path d="M15 .35c4.045 0 7.708 1.64 10.36 4.29A14.604 14.604 0 0 1 29.65 15c0 5.442-6.57 14.54-10.966 20.055l-.403.504A121.606 121.606 0 0 1 15 39.472a122.12 122.12 0 0 1-3.28-3.913l-.403-.503C6.92 29.54.35 20.442.35 15c0-4.045 1.64-7.708 4.29-10.36A14.604 14.604 0 0 1 15 .35Z" stroke="#333" stroke-width=".7" fill="url(#a)" fill-rule="nonzero"/></symbol>
<symbol id="icon-help" viewBox="0 0 8 15"><path d="M1.704 3.143c.19-.795 1.06-1.439 2.064-1.439 1.137 0 1.913.777 1.913 1.742 0 2.046-3.295 2.424-3.295 4.773 0 .7.322 1.439 1.098 2.026l1.193-1.25c-.322-.284-.492-.55-.492-.795 0-.985 3.295-1.837 3.295-4.754C7.48 1.553 5.908 0 3.768 0 1.932 0 .378 1.117 0 2.651l1.704.492Zm.663 10.166c0-.739.587-1.326 1.326-1.326.738 0 1.325.587 1.325 1.326 0 .738-.587 1.325-1.325 1.325a1.317 1.317 0 0 1-1.326-1.325Z"/></symbol>
<symbol id="icon-helper-add" viewBox="0 0 14 14"><path d="M8 2v4h4v2H8v4H6V8H2V6h4V2h2Z"/></symbol>
<symbol id="icon-helper-delete" viewBox="0 0 14 14"><path d="M8.8 1c.386 0 .7.314.7.7v1.61H12v1.265h-1.25l-.96 7.47a.42.42 0 0 1-.418.384H4.614a.42.42 0 0 1-.419-.384l-.945-7.47H2V3.311l2.5-.001V1.7c0-.354.264-.647.605-.694L5.2 1Zm-.55 1.325h-2.5v.985h2.5v-.985Z"/></symbol>
<symbol id="icon-info" viewBox="0 0 16 16"><path d="M7.972 15.167c-3.968 0-7.195-3.228-7.195-7.195C.777 4.004 4.004.777 7.972.777c3.967 0 7.195 3.227 7.195 7.195 0 3.967-3.228 7.195-7.195 7.195M7.972 0C3.576 0 0 3.576 0 7.972c0 4.395 3.576 7.971 7.972 7.971 4.395 0 7.971-3.576 7.971-7.971C15.943 3.576 12.367 0 7.972 0m1.69 10.576c-.08-.052-.14-.044-.248.058-.146.139-.282.286-.425.428-.22.221-.436.45-.669.657a1.265 1.265 0 0 1-.384.225c-.17.066-.304-.05-.295-.234a.529.529 0 0 1 .02-.143c.076-.225.151-.452.236-.674.442-1.152.888-2.302 1.33-3.454.127-.332.21-.675.18-1.035-.027-.353-.186-.624-.511-.784a1.262 1.262 0 0 0-.5-.124 3.257 3.257 0 0 0-1.505.295c-.859.383-1.515 1.013-2.093 1.737a.885.885 0 0 0-.124.242c-.032.086.007.17.089.231.076.057.152.063.233.006a1.19 1.19 0 0 0 .18-.152c.143-.151.282-.307.423-.461.212-.234.418-.476.687-.647.1-.064.217-.111.332-.143.144-.04.267.05.272.198a.704.704 0 0 1-.054.28c-.205.508-.42 1.012-.627 1.52-.307.746-.62 1.49-.912 2.243-.186.478-.328.971-.372 1.488-.042.5.204.863.68.974.128.03.262.036.392.053.347-.011.679-.084.998-.208.98-.379 1.79-.997 2.47-1.79.123-.145.238-.299.3-.483a.257.257 0 0 0-.102-.303m.051-8.068a1.42 1.42 0 0 0-.539-.084c-.665.015-1.313.52-1.377 1.226-.046.514.198 1.027.782 1.191.276.078.552.07.828-.005.605-.166 1.013-.68 1.015-1.275.002-.493-.262-.885-.709-1.053"/></symbol>
<symbol id="icon-instagram" viewBox="0 0 20 20"><path d="M14.4 0a5.495 5.495 0 0 1 5.49 5.489V14.4a5.495 5.495 0 0 1-5.49 5.489H5.49A5.495 5.495 0 0 1 0 14.4V5.49A5.495 5.495 0 0 1 5.489 0Zm0 1.765H5.49a3.728 3.728 0 0 0-3.724 3.724V14.4a3.728 3.728 0 0 0 3.724 3.724H14.4a3.728 3.728 0 0 0 3.724-3.724V5.489a3.729 3.729 0 0 0-3.724-3.724ZM9.946 4.82a5.13 5.13 0 0 1 5.125 5.125 5.13 5.13 0 0 1-5.125 5.125A5.13 5.13 0 0 1 4.82 9.945 5.13 5.13 0 0 1 9.945 4.82Zm0 1.765a3.364 3.364 0 0 0-3.36 3.36 3.364 3.364 0 0 0 3.36 3.36 3.364 3.364 0 0 0 3.36-3.36 3.364 3.364 0 0 0-3.36-3.36Zm5.34-3.261a1.3 1.3 0 0 1 .915.378 1.3 1.3 0 0 1 .379.916c0 .34-.138.674-.379.915-.241.24-.574.379-.915.379-.34 0-.674-.139-.914-.379a1.305 1.305 0 0 1-.38-.915 1.3 1.3 0 0 1 1.294-1.294Z"/></symbol>
<symbol id="icon-john-lewis" viewBox="0 0 30 40"><path d="M15 .35c4.045 0 7.708 1.64 10.36 4.29A14.604 14.604 0 0 1 29.65 15c0 5.442-6.57 14.54-10.966 20.055l-.403.504A121.606 121.606 0 0 1 15 39.472a122.12 122.12 0 0 1-3.28-3.913l-.403-.503C6.92 29.54.35 20.442.35 15c0-4.045 1.64-7.708 4.29-10.36A14.604 14.604 0 0 1 15 .35Z" fill="#52A47D" fill-rule="nonzero" stroke="#333" stroke-width=".7"/></symbol>
<symbol id="icon-led" viewBox="0 0 23 23"><path d="M11.5 0 0 11.501 11.498 23 23 11.501 11.5 0ZM1.902 11.501l9.6-9.6 9.598 9.6-9.601 9.598L1.901 11.5Zm12.141 3.923h1.345V7.9h-1.345v7.525Zm-3.321 0h1.344V7.9h-1.344v7.525Zm-3.323 0h1.344V7.9H7.398v7.525Z"/></symbol>
<symbol id="icon-linkedin" viewBox="0 0 21 20"><path d="M5 6v14H0V6h5Zm0-3.5C5.013 3.889 4.04 5 2.486 5H2.46C.96 5 0 3.889 0 2.5 0 1.082 1 0 2.513 0 4.04 0 4.986 1.082 5 2.5Zm6.583 5.762C12.188 7.325 13.28 6 15.72 6 18.743 6 21 7.96 21 12.158V20h-4.583v-7.318c0-1.836-.669-3.092-2.326-3.092-1.268 0-2.02.842-2.355 1.657-.111.303-.153.704-.153 1.118V20H7C7.056 7.602 7 6.318 7 6.318h4.583v1.944Z"/></symbol>
<symbol id="icon-magnify" viewBox="0 0 20 20"><path d="M2.427 2.432c3.236-3.243 8.5-3.243 11.736 0 3.03 3.038 3.224 7.86.577 11.124L20 18.828 18.83 20l-5.255-5.268c-3.257 2.697-8.101 2.52-11.148-.534-3.236-3.244-3.236-8.521 0-11.766Zm10.678 1.062a6.798 6.798 0 0 0-9.62 0c-2.652 2.658-2.652 6.984 0 9.642a6.798 6.798 0 0 0 9.62.001c2.652-2.658 2.652-6.984 0-9.643ZM9 5v3h3v1H9v3H8V9H5V8h3V5h1Z"/></symbol>
<symbol id="icon-minus-circled" viewBox="0 0 27 27"><g data-name="Layer 2"><path d="M13.5 0A13.5 13.5 0 1 0 27 13.5 13.52 13.52 0 0 0 13.5 0Zm0 26A12.5 12.5 0 1 1 26 13.5 12.51 12.51 0 0 1 13.5 26ZM3.41 12.94v1h20v-1Z" data-name="Layer 1"/></g></symbol>
<symbol id="icon-minus-small" viewBox="0 0 10 2"><path d="M0 0h10v2H0z"/></symbol>
<symbol id="icon-minus" viewBox="0 0 20 2"><path d="M0 0h20v2H0z"/></symbol>
<symbol id="icon-mto" viewBox="0 0 27 23"><path d="M15.2 14.9v.5c0 .4.2.8.4 1.1l-2.5 5.7c-.1.3-.4.5-.6.5h-9a.7.7 0 0 1-.6-.5L.1 15.7c-.2-.3 0-.5.2-.6l.4-.2c.2 0 .5 0 .6.3L4 21.3h8l2.7-6.1c0-.2.3-.3.5-.3ZM8 9.5c.8 0 1.6.3 2.1.8 0 .3 0 .8.3 1.1l1 1.9v2.5c0 .3-.2.5-.5.5h-.4a.5.5 0 0 1-.5-.5V13a2 2 0 1 0-4 0v3c0 .2-.3.4-.5.4H5a.5.5 0 0 1-.5-.5V13C4.6 11 6 9.5 8 9.5ZM20.3 1c.4 0 .7.3.7.7v1.7l.9.5 1.5-.8c.3-.2.8-.1 1 .2l1.6 3c.2.3.1.7-.2 1l-1.5.8v1l1.5.8c.3.2.4.7.2 1l-1.6 2.9c-.2.4-.7.5-1 .3l-1.5-.9-.9.5v1.7c0 .4-.3.8-.7.8H17a.7.7 0 0 1-.8-.8v-1.7l-.8-.5-1.5.9c-.4.2-.8 0-1-.3l-1.7-2.9c-.2-.3 0-.8.3-1l1.5-.8V8l-1.5-.9a.7.7 0 0 1-.3-1L13 3.3c.2-.3.6-.4 1-.2l1.5.8.8-.5V1.7c0-.4.4-.7.8-.7Zm-1.7 4.5a3 3 0 1 0 0 6.1 3 3 0 0 0 0-6Z"/></symbol>
<symbol id="icon-not-available" viewBox="0 0 40 40"><circle fill="#DD5D5A" cx="20" cy="20" r="20"/><path d="m26.142 12 1.961 1.961-6.09 6.091 6.09 6.09-1.96 1.961-6.091-6.09-6.09 6.09L12 26.143l6.091-6.091L12 13.962 13.961 12l6.091 6.091L26.142 12Z" fill="#FFF"/></symbol>
<symbol id="icon-open-nav" viewBox="0 0 20 18"><path d="M20 16v2H0v-2h20Zm0-8v2H0V8h20Zm0-8v2H0V0h20Z"/></symbol>
<symbol id="icon-oval-cycle" viewBox="0 0 230 230"><g fill="none" fill-rule="evenodd"><path d="M111 3.5C49.973 3.5.5 52.973.5 114S49.973 224.5 111 224.5 221.5 175.027 221.5 114 172.027 3.5 111 3.5Zm0 1c60.475 0 109.5 49.025 109.5 109.5S171.475 223.5 111 223.5 1.5 174.475 1.5 114 50.525 4.5 111 4.5Z" fill="#979797" fill-rule="nonzero"/><path d="M110.5 9a4.5 4.5 0 1 0 0-9 4.5 4.5 0 0 0 0 9Zm96 56a4.5 4.5 0 1 0 0-9 4.5 4.5 0 0 0 0 9Zm-96 164a4.5 4.5 0 1 0 0-9 4.5 4.5 0 0 0 0 9Zm96-56a4.5 4.5 0 1 0 0-9 4.5 4.5 0 0 0 0 9ZM14.5 65a4.5 4.5 0 1 0 0-9 4.5 4.5 0 0 0 0 9Zm1 108a4.5 4.5 0 1 0 0-9 4.5 4.5 0 0 0 0 9Z" fill="#000"/></g></symbol>
<symbol id="icon-pause" viewBox="0 0 16 21"><path d="M0 0h5v21H0Zm11 0h5v21h-5Z"/></symbol>
<symbol id="icon-pdf" viewBox="0 0 12 14"><path d="M11.469 2.969c.146.146.27.343.375.594.104.25.156.479.156.687v9a.723.723 0 0 1-.219.531.723.723 0 0 1-.531.219H.75a.723.723 0 0 1-.531-.219A.723.723 0 0 1 0 13.25V.75C0 .542.073.365.219.219A.723.723 0 0 1 .75 0h7c.208 0 .437.052.688.156.25.104.447.23.593.375L11.47 2.97ZM8 1.063V4h2.938a.853.853 0 0 0-.172-.32L8.32 1.234A.853.853 0 0 0 8 1.063ZM11 13V5H7.75a.723.723 0 0 1-.531-.219A.723.723 0 0 1 7 4.25V1H1v12h10ZM6.984 8.367c.172.136.391.281.657.438.307-.037.612-.055.914-.055.765 0 1.226.128 1.383.383.083.114.088.25.015.406 0 .005-.002.01-.008.016l-.015.015v.008c-.032.198-.216.297-.555.297-.25 0-.55-.052-.898-.156a5.696 5.696 0 0 1-1.016-.414c-1.151.125-2.172.34-3.063.648C3.602 11.318 2.971 12 2.508 12a.454.454 0 0 1-.219-.055l-.187-.093a.836.836 0 0 0-.047-.04c-.052-.052-.068-.145-.047-.28.047-.21.193-.447.437-.716.245-.268.589-.52 1.032-.754.072-.046.132-.03.18.047.01.01.015.021.015.032.27-.443.55-.956.836-1.54.354-.708.625-1.39.812-2.046a6.315 6.315 0 0 1-.238-1.246c-.034-.404-.017-.736.05-.997C5.19 4.104 5.3 4 5.462 4h.172c.12 0 .21.04.273.117.094.11.117.287.07.531a.17.17 0 0 1-.03.063.203.203 0 0 1 .007.062v.235c-.01.64-.047 1.14-.11 1.5.287.854.667 1.474 1.141 1.86Zm-4.5 3.211c.271-.125.628-.536 1.07-1.234a4.454 4.454 0 0 0-.683.656c-.19.23-.319.422-.387.578Zm3.11-7.187c-.078.218-.084.562-.016 1.03l.055-.343c0-.016.018-.127.054-.336a.176.176 0 0 1 .032-.062c-.005-.006-.008-.01-.008-.016 0-.005-.001-.01-.004-.012s-.004-.006-.004-.011a.45.45 0 0 0-.101-.282c0 .006-.003.01-.008.016v.016ZM9.672 9.43c-.125-.125-.49-.188-1.094-.188.396.146.719.219.969.219.073 0 .12-.003.14-.008 0-.005-.005-.013-.015-.023Zm-5.047.125a11.459 11.459 0 0 1 2.219-.633 1.18 1.18 0 0 1-.102-.074 1.396 1.396 0 0 1-.125-.106c-.396-.349-.726-.807-.992-1.375-.14.448-.357.961-.648 1.54-.157.29-.274.507-.352.648Z"/></symbol>
<symbol id="icon-pin" viewBox="0 0 22 28"><g fill-rule="nonzero" fill="none"><path d="M10.75 1A9.763 9.763 0 0 0 1 10.75c0 7 9.084 15.767 9.47 16.136a.402.402 0 0 0 .56 0c.386-.37 9.47-9.136 9.47-16.136A9.763 9.763 0 0 0 10.75 1Zm0 14.219a4.469 4.469 0 1 1 0-8.938 4.469 4.469 0 0 1 0 8.938Z" fill="#5D6B74"/><path d="M18.348 3.152A10.764 10.764 0 0 1 21.5 10.75c0 3.341-1.795 7.135-4.788 11.152a49.884 49.884 0 0 1-3.304 3.969 40.427 40.427 0 0 1-1.68 1.732 1.402 1.402 0 0 1-1.95.005 40.452 40.452 0 0 1-1.686-1.737 49.883 49.883 0 0 1-3.304-3.97C1.795 17.886 0 14.092 0 10.75A10.763 10.763 0 0 1 10.749 0a10.764 10.764 0 0 1 7.599 3.152ZM10.75 1A9.763 9.763 0 0 0 1 10.75c0 7 9.084 15.767 9.47 16.136a.402.402 0 0 0 .56 0c.386-.37 9.47-9.136 9.47-16.136A9.763 9.763 0 0 0 10.75 1Zm-.872 5.367a4.469 4.469 0 1 1 1.744 8.766 4.469 4.469 0 0 1-1.744-8.766Zm.195.98a3.469 3.469 0 0 0 .449 6.864l.228.007.211-.006a3.471 3.471 0 0 0 2.087-.865l.154-.145a3.471 3.471 0 0 0 .432-4.38 3.468 3.468 0 0 0-3.56-1.474Z" fill="#FFF"/></g></symbol>
<symbol id="icon-pinterest" viewBox="0 0 16 20"><path d="M15.905 5.561C15.343 1.61 11.293-.404 6.972.068 3.555.44.148 3.126.007 6.968-.079 9.311.605 11.07 2.9 11.565c.994-1.71-.32-2.083-.525-3.322-.842-5.063 6.005-8.52 9.591-4.983 2.484 2.45.847 9.983-3.153 9.199-3.832-.747 1.877-6.744-1.181-7.92-2.486-.957-3.806 2.925-2.627 4.855-.692 3.319-2.18 6.444-1.578 10.605 1.954-1.38 2.614-4.019 3.153-6.772.983.58 1.508 1.182 2.76 1.276 4.618.348 7.2-4.483 6.566-8.943Z"/></symbol>
<symbol id="icon-platinum" viewBox="0 0 30 40"><path d="M15 .35c4.045 0 7.708 1.64 10.36 4.29A14.604 14.604 0 0 1 29.65 15c0 5.442-6.57 14.54-10.966 20.055l-.403.504A121.606 121.606 0 0 1 15 39.472a122.12 122.12 0 0 1-3.28-3.913l-.403-.503C6.92 29.54.35 20.442.35 15c0-4.045 1.64-7.708 4.29-10.36A14.604 14.604 0 0 1 15 .35Z" stroke="#333" stroke-width=".7" fill="#DA8383" fill-rule="nonzero"/></symbol>
<symbol id="icon-play-roundel" viewBox="0 0 60 60"><g fill="#FFF" fill-rule="evenodd"><circle opacity=".345" cx="30" cy="30" r="30"/><path d="m41.5 30-18 10.5v-21z"/></g></symbol>
<symbol id="icon-play" viewBox="0 0 19 22"><path d="M18.5 11 .5 21.5V.5z"/></symbol>
<symbol id="icon-plus-circled" viewBox="0 0 27 27"><g data-name="Layer 2"><path d="M13.5 0A13.5 13.5 0 1 0 27 13.5 13.52 13.52 0 0 0 13.5 0Zm0 26A12.5 12.5 0 1 1 26 13.5 12.51 12.51 0 0 1 13.5 26Zm.41-13.06v-9.5h-1v9.5h-9.5v1h9.5v9.5h1v-9.5h9.5v-1Z" data-name="Layer 1"/></g></symbol>
<symbol id="icon-plus-small" viewBox="0 0 10 10"><path d="M6 0v4h4v2H6v4H4V6H0V4h4V0h2Z"/></symbol>
<symbol id="icon-plus" viewBox="0 0 20 20"><path d="M11 0v9h9v2h-9v9H9v-9H0V9h9V0h2Z"/></symbol>
<symbol id="icon-premier" viewBox="0 0 30 40"><path d="M15 .35c4.045 0 7.708 1.64 10.36 4.29A14.604 14.604 0 0 1 29.65 15c0 5.442-6.57 14.54-10.966 20.055l-.403.504A121.606 121.606 0 0 1 15 39.472a122.12 122.12 0 0 1-3.28-3.913l-.403-.503C6.92 29.54.35 20.442.35 15c0-4.045 1.64-7.708 4.29-10.36A14.604 14.604 0 0 1 15 .35Z" stroke="#333" stroke-width=".7" fill="#4D4D4D" fill-rule="nonzero"/></symbol>
<symbol id="icon-quote-1" viewBox="0 0 90 59"><path d="M75.34 58.316 90 0H71.269L46.837 58.316H75.34Zm-46.836 0L43.164 0H24.431L0 58.316h28.504Z"/></symbol>
<symbol id="icon-quote-2" viewBox="0 0 90 58"><path d="M14.604 0 0 58h18.66L43 0H14.604Zm47 0L47 58h18.66L90 0H61.604Z"/></symbol>
<symbol id="icon-redo" viewBox="0 0 20 14"><path d="M16.863 3.705C5.753 3.448 0 6.69 0 13.53h1.5c0-5.802 5.037-8.61 15.512-8.322L14.219 8l1.06 1.06 4.531-4.53L15.28 0l-1.061 1.06 2.644 2.645Z"/></symbol>
<symbol id="icon-refresh" viewBox="0 0 42 48"><path d="M17.454.44 24.61 7l-7.156 6.56-1.014-1.106 5.131-4.705-.615.001C10.343 7.774 1.75 16.385 1.75 27c0 10.631 8.619 19.25 19.25 19.25S40.25 37.631 40.25 27a19.19 19.19 0 0 0-5.975-13.94.75.75 0 0 1 1.034-1.087A20.689 20.689 0 0 1 41.75 27c0 11.46-9.29 20.75-20.75 20.75S.25 38.46.25 27c0-11.326 9.075-20.535 20.355-20.746l.35-.004h.616l-5.13-4.704L17.453.44Z"/></symbol>
<symbol id="icon-remove-piece" viewBox="0 0 12 12"><path d="m7.414 6 4.243 4.243-1.414 1.414L6 7.414l-4.243 4.243-1.414-1.414L4.586 6 .343 1.757 1.757.343 6 4.586 10.243.343l1.414 1.414L7.414 6Z"/></symbol>
<symbol id="icon-rotate-left" viewBox="0 0 18 18"><path d="M3.078 13.74c.268.332.566.644.887.927l-.93 1.052a9.056 9.056 0 0 1-1.05-1.1l1.093-.88Zm-1.246-2.233c.142.402.32.795.528 1.169l-1.225.684a8.97 8.97 0 0 1-.627-1.387l1.324-.466Zm-.428-2.52c0 .43.036.86.107 1.279l-1.384.235A9.07 9.07 0 0 1 0 8.987h1.404Zm3.59 6.446c.363.225.748.42 1.143.58l-.528 1.301a8.98 8.98 0 0 1-1.355-.688l.74-1.193Zm11.312-4.486 1.356.362c-.13.489-.304.97-.516 1.43l-1.275-.587c.178-.387.325-.793.435-1.205Zm-2.848 4.157.83 1.132c-.41.3-.846.566-1.298.792l-.627-1.256a7.6 7.6 0 0 0 1.095-.668Zm1.78-1.837 1.157.794c-.286.417-.61.813-.961 1.177l-1.008-.977c.297-.307.57-.641.812-.994Zm-4.067 2.978.404 1.344a8.97 8.97 0 0 1-1.488.313l-.17-1.393c.424-.052.846-.14 1.254-.264Zm-3.81.147c.416.091.844.147 1.272.166L8.57 17.96a9.015 9.015 0 0 1-1.508-.196l.3-1.372Zm7.973-13.756a8.924 8.924 0 0 1 2.63 6.351h-.7.7c0 .275-.012.553-.036.825l-1.398-.128c.02-.23.031-.464.031-.697 0-4.179-3.4-7.579-7.579-7.579-1.962 0-3.84.77-5.24 2.105h2.574v1.404H1.404V.005h1.403v2.462a9.031 9.031 0 0 1 2.018-1.444A9.005 9.005 0 0 1 8.982.005c2.4 0 4.655.934 6.352 2.63Z"/></symbol>
<symbol id="icon-rotate-right" viewBox="0 0 18 18"><path d="M14.922 13.74a7.646 7.646 0 0 1-.887.927l.93 1.052c.38-.336.732-.705 1.05-1.1l-1.093-.88Zm1.246-2.233a7.56 7.56 0 0 1-.528 1.169l1.225.684a8.97 8.97 0 0 0 .627-1.387l-1.324-.466Zm.428-2.52c0 .43-.036.86-.107 1.279l1.384.235A9.07 9.07 0 0 0 18 8.987h-1.404Zm-3.59 6.446c-.363.225-.748.42-1.143.58l.528 1.301a8.98 8.98 0 0 0 1.355-.688l-.74-1.193ZM1.694 10.947l-1.356.362c.13.489.304.97.516 1.43l1.275-.587a7.552 7.552 0 0 1-.435-1.205Zm2.848 4.157-.83 1.132c.41.3.846.566 1.298.792l.627-1.256a7.6 7.6 0 0 1-1.095-.668Zm-1.78-1.837-1.157.794c.286.417.61.813.961 1.177l1.008-.977a7.648 7.648 0 0 1-.812-.994Zm4.067 2.978-.404 1.344a8.97 8.97 0 0 0 1.488.313l.17-1.393a7.557 7.557 0 0 1-1.254-.264Zm3.81.147c-.416.091-.844.147-1.272.166l.063 1.402a9.015 9.015 0 0 0 1.508-.196l-.3-1.372ZM2.666 2.636a8.924 8.924 0 0 0-2.63 6.351h.7-.7c0 .275.012.553.036.825l1.398-.128a7.73 7.73 0 0 1-.031-.697c0-4.179 3.4-7.579 7.579-7.579 1.962 0 3.84.77 5.24 2.105h-2.574v1.404h4.912V.005h-1.403v2.462a9.031 9.031 0 0 0-2.018-1.444A9.005 9.005 0 0 0 9.018.005c-2.4 0-4.655.934-6.352 2.63Z"/></symbol>
<symbol id="icon-save" viewBox="0 0 18 18"><path d="M4 0v6a1 1 0 0 0 1 1h8a1 1 0 0 0 1-1V1a1 1 0 0 0-1-1h2l3 3v14a1 1 0 0 1-1 1H1a1 1 0 0 1-1-1V1a1 1 0 0 1 1-1h3ZM3 9a1 1 0 0 0-1 1v5a1 1 0 0 0 1 1h12a1 1 0 0 0 1-1v-5a1 1 0 0 0-1-1H3Zm8-8h1a1 1 0 0 1 1 1v3a1 1 0 0 1-1 1h-1a1 1 0 0 1-1-1V2a1 1 0 0 1 1-1Z"/></symbol>
<symbol id="icon-search" viewBox="0 0 20 20"><path d="M13.105 13.137a6.798 6.798 0 0 1-9.62 0c-2.652-2.659-2.652-6.985 0-9.643a6.798 6.798 0 0 1 9.62 0c2.652 2.66 2.652 6.985 0 9.643Zm1.635.42c2.647-3.266 2.453-8.087-.577-11.125-3.236-3.243-8.5-3.243-11.736 0-3.236 3.245-3.236 8.522 0 11.766 3.047 3.054 7.89 3.231 11.148.534L18.831 20 20 18.828l-5.26-5.272Z"/></symbol>
<symbol id="icon-share" viewBox="0 0 20 18"><path d="M6.706 8.485a3.02 3.02 0 0 1 0 1.03l7.572 3.785a3 3 0 1 1-.515 1.42l-7.676-3.838a3 3 0 1 1 0-3.764l7.676-3.838a3 3 0 1 1 .515 1.42L6.706 8.485Z"/></symbol>
<symbol id="icon-show-all" viewBox="0 0 27 27"><path d="M24.978 3.446 16.423 12 15 10.577l8.554-8.555H18.94V.01h8.051V8.06h-2.012V3.446ZM2.022 23.554 10.577 15 12 16.423l-8.554 8.555H8.06v2.012H.01V18.94h2.012v4.615ZM3.446 2.022 12 10.577 10.577 12 2.022 3.446V8.06H.01V.01h8.05v2.012H3.447Zm20.108 22.956L15 16.423 16.423 15l8.555 8.554V18.94h2.012v8.051h-8.05v-2.012h4.614Z"/></symbol>
<symbol id="icon-showroom" viewBox="0 0 30 40"><path d="M15 .35c4.045 0 7.708 1.64 10.36 4.29A14.604 14.604 0 0 1 29.65 15c0 5.442-6.57 14.54-10.966 20.055l-.403.504A121.606 121.606 0 0 1 15 39.472a122.12 122.12 0 0 1-3.28-3.913l-.403-.503C6.92 29.54.35 20.442.35 15c0-4.045 1.64-7.708 4.29-10.36A14.604 14.604 0 0 1 15 .35Z" stroke="#333" stroke-width=".7" fill="#BCCEA7" fill-rule="evenodd"/></symbol>
<symbol id="icon-silver" viewBox="0 0 30 40"><g fill-rule="nonzero" fill="none"><use fill="url(#a)" xlink:href="#b"/><path stroke="#333" stroke-width=".7" d="M15 .35c4.045 0 7.708 1.64 10.36 4.29A14.604 14.604 0 0 1 29.65 15c0 5.442-6.57 14.54-10.966 20.055l-.403.504A121.606 121.606 0 0 1 15 39.472a122.12 122.12 0 0 1-3.28-3.913l-.403-.503C6.92 29.54.35 20.442.35 15c0-4.045 1.64-7.708 4.29-10.36A14.604 14.604 0 0 1 15 .35Z" stroke-linejoin="square" fill-opacity=".12" fill="#000" fill-rule="evenodd"/></g></symbol>
<symbol id="icon-small-screen" viewBox="0 0 202 137"><g fill="none" fill-rule="evenodd"><mask id="b" fill="#fff"><use xlink:href="#a"/></mask><path d="M199.179 77.32h-24.841c-.778 0-1.41.632-1.41 1.409 0 .776.632 1.408 1.41 1.408h24.84v11.446c0 2.846-2.32 5.162-5.17 5.162h-62.563V80.137h30.823c.778 0 1.411-.632 1.411-1.408 0-.777-.633-1.408-1.41-1.408h-30.824v-7.769h58.527a1.41 1.41 0 0 0 1.411-1.408V11.728c0-.776-.632-1.408-1.41-1.408H65.78c-.778 0-1.41.632-1.41 1.408v32.328h-7.796V7.978c0-2.846 2.32-5.162 5.171-5.162h132.262c2.852 0 5.172 2.316 5.172 5.162v69.343Zm-45.817 43.646a4.743 4.743 0 0 1 4.743 4.733v8.485h-19.512l1.526-2.45a11.046 11.046 0 0 0 1.67-5.844v-2.368a1.41 1.41 0 0 0-1.411-1.408h-8.932V99.56h18.623v19.997c0 .776.633 1.408 1.41 1.408h1.883Zm-22.703 13.218H11.129a8.268 8.268 0 0 1-8.27-7.497l-.17-1.757H139.1l-.17 1.757a8.269 8.269 0 0 1-8.27 7.497Zm.787-79.526 13.143-13.12 2.733 2.73c.916.913 2.222 1.185 3.326.692 1.007-.448 1.617-1.47 1.555-2.605l-.967-17.613a1.407 1.407 0 0 0-1.331-1.329l-17.646-.966c-1.134-.056-2.161.55-2.61 1.553-.493 1.103-.22 2.405.695 3.318l2.734 2.73-14.033 14.007H67.192v-30.92h121.371v53.601h-57.117V54.658Zm-29.69 27.644 3.79 3.783-16.207-.887-.889-16.18 3.79 3.784c.551.549 1.446.55 1.995 0l41.835-41.758c.262-.262.413-.625.413-.996 0-.37-.151-.734-.413-.996l-3.79-3.783 16.207.887.889 16.18-3.79-3.785a1.414 1.414 0 0 0-1.996 0L101.757 80.31a1.419 1.419 0 0 0-.413.996c0 .37.15.734.413.996Zm-88.9-31.757a3.68 3.68 0 0 1 3.68-3.673h99.687l-7.41 7.397H48.21c-.778 0-1.411.632-1.411 1.408 0 .776.633 1.408 1.41 1.408h57.782L93.238 69.816l-2.734-2.73c-.916-.913-2.221-1.185-3.325-.692-1.008.449-1.618 1.47-1.556 2.604l.968 17.614c.04.718.611 1.29 1.33 1.329l17.646.966c.05.002.106.004.162.004 1.08 0 2.018-.596 2.446-1.556.495-1.103.223-2.406-.692-3.32l-2.736-2.73 12.755-12.729v43.325H23.978V57.085H36.14a1.41 1.41 0 0 0 1.41-1.407c0-.777-.632-1.409-1.41-1.409H22.567c-.778 0-1.41.632-1.41 1.409v57.63c0 .777.632 1.409 1.41 1.409h96.347c.777 0 1.41-.632 1.41-1.408v-47.55l8.303-8.288-.022 10.45a1.453 1.453 0 0 0-.022.223c0 .065.007.137.021.22l.021.258v53.491H12.855V50.545ZM202 7.978c0-4.4-3.585-7.978-7.993-7.978H61.745c-4.407 0-7.992 3.579-7.992 7.978v36.078H16.536c-3.585 0-6.502 2.91-6.502 6.49v71.568H1.41A1.41 1.41 0 0 0 0 123.522v2.368C0 132.016 4.992 137 11.13 137h167.078a1.41 1.41 0 0 0 1.41-1.408c0-.776-.632-1.408-1.41-1.408h-17.282v-8.485a7.562 7.562 0 0 0-6.627-7.492l-1.409-.175V99.561h41.117c4.408 0 7.993-3.58 7.993-7.979V7.978Z" fill="#9DACB6" mask="url(#b)"/></g></symbol>
<symbol id="icon-switched" viewBox="0 0 25 25"><g data-name="Layer 2"><path d="M14.9 5.29h-4.8v14.42h4.8ZM0 0v25h25V0Zm24.71 24.71H.29V.29h24.42Z" data-name="Layer 1"/></g></symbol>
<symbol id="icon-technical-toggle" viewBox="0 0 20 20"><path d="M3 20a3 3 0 0 1-3-3V3a3 3 0 0 1 3-3h14a3 3 0 0 1 3 3v14a3 3 0 0 1-3 3H3ZM17 1H3a2 2 0 0 0-2 2v14a2 2 0 0 0 2 2h14a2 2 0 0 0 2-2V3a2 2 0 0 0-2-2ZM9 11v6H3v-6h6Zm6 4v1h-4v-1h4Zm2-3v1h-6v-1h6ZM9 3v6H3V3h6Zm6 4v1h-4V7h4Zm2-3v1h-6V4h6Z"/></symbol>
<symbol id="icon-tick" viewBox="0 0 12 10"><path d="m.101 6 1.415-1.414 2.242 2.242 5.9-5.9 1.414 1.415-7.314 7.314L.101 6Z"/></symbol>
<symbol id="icon-twenty-years-logo-small" viewBox="0 0 61 45"><path d="M40.791 41.396c.642-.759 1.026-1.38 1.026-2.118 0-1.112-.897-1.977-2.063-1.977-1.026 0-1.829.662-2.043 1.571l.193.064c.203-.823.984-1.444 1.86-1.444 1.017 0 1.84.78 1.84 1.797 0 .717-.406 1.316-1.016 2.033l-2.94 3.465v.106h4.383v-.191h-4.052l2.812-3.306Zm-11.861-.588h2.566v-.191H28.93v.19Zm-13.102.396c-.363.343-.941.588-1.55.588-1.231 0-2.14-.962-2.14-2.15 0-1.187.909-2.15 2.14-2.15 1.23 0 2.139.963 2.139 2.15 0 .524-.17.952-.589 1.562Zm-1.55-3.903a2.316 2.316 0 0 0-2.353 2.341 2.316 2.316 0 0 0 2.352 2.342c.514 0 .984-.138 1.306-.351l-2.172 3.26h.267l2.269-3.453c.342-.524.683-1.091.683-1.808a2.32 2.32 0 0 0-2.353-2.331Zm32.46 7.508c-1.616 0-2.194-1.637-2.194-3.659s.578-3.658 2.194-3.658c1.615 0 2.193 1.636 2.193 3.658 0 2.022-.578 3.659-2.193 3.659Zm0-7.508c-1.777 0-2.406 1.721-2.406 3.85S44.962 45 46.738 45c1.776 0 2.405-1.72 2.405-3.85 0-2.128-.629-3.85-2.405-3.85Zm-28.45.298h4.225l-3.54 7.294h.213l3.594-7.38v-.105h-4.492v.19Zm37.754-.191v.19h4.225l-3.54 7.295h.214l3.594-7.38v-.105h-4.493ZM43.334 23.897c-1.276 2.347-3.289 3.489-6.154 3.489-3.037 0-5.166-1.015-6.508-3.103-1.357-2.11-2.045-4.748-2.045-7.84 0-3.866.798-6.822 2.371-8.784 1.575-1.964 3.553-2.919 6.046-2.919 2.568 0 4.535.961 6.012 2.938 1.483 1.983 2.234 4.65 2.234 7.925 0 3.114-.658 5.904-1.956 8.294ZM36.839.54c-4.342 0-7.67 1.847-9.89 5.49-1.708 2.805-2.574 6.22-2.574 10.15 0 4.354 1.014 8.012 3.022 10.885 2.266 3 5.42 4.52 9.375 4.52 4.234 0 7.54-1.737 9.83-5.163 1.929-2.886 2.907-6.549 2.907-10.886 0-4.012-.857-7.359-2.548-9.946C44.775 2.239 41.37.54 36.84.54Zm14.712 37.873v.224l1.658-.94v7.196h.212v-7.485h-.106l-1.764 1.005Zm7.37-9.784c.43 0 .605.454.605.861 0 .367-.159.74-.366.965l.796.557c.39-.526.526-1.052.526-1.618 0-.925-.573-1.841-1.569-1.841-.63 0-1.013.351-1.268.789-.439.749-.526 1.786-1.244 1.786-.406 0-.701-.335-.701-.814 0-.51.263-.996.614-1.315l-.733-.7c-.526.573-.837 1.265-.837 2.015 0 1.005.685 1.89 1.673 1.89 1.882 0 1.603-2.575 2.504-2.575ZM55.78 8.318h1.555v1.713h.955V8.318h1.157v2.272h.955V7.243h-5.578v3.426h.956V8.318ZM21.633 26.47H5.513c.4-1.21 1.195-2.336 2.368-3.357.752-.658 1.806-1.362 3.133-2.094l2.847-1.579c2.561-1.429 4.294-2.618 5.296-3.635 1.74-1.754 2.621-3.897 2.621-6.368 0-2.338-.823-4.488-2.446-6.39-1.639-1.92-4.246-2.893-7.75-2.893-4.224 0-7.219 1.517-8.903 4.51-.94 1.682-1.439 3.873-1.48 6.512l-.006.377h4.54l.01-.36c.054-1.783.334-3.188.834-4.176.921-1.825 2.552-2.712 4.984-2.712 1.622 0 2.932.479 3.894 1.423.96.942 1.446 2.242 1.446 3.865 0 1.395-.522 2.603-1.597 3.694-.693.707-1.931 1.582-3.68 2.599l-3.988 2.305c-2.726 1.582-4.59 3.376-5.538 5.332-.94 1.934-1.486 4.232-1.626 6.83l-.02.392h21.181v-4.275Zm36.617-4.663h1.197v.893c0 .311-.071.447-.176.542a.645.645 0 0 1-.43.16.638.638 0 0 1-.423-.16c-.104-.095-.168-.23-.168-.542v-.893Zm-.54 2.176c.286.302.692.494 1.139.494.446 0 .853-.192 1.14-.494.254-.279.413-.644.413-1.22v-2.032h-5.578v1.076h2.472v.39l-2.472 1.985v1.33l2.559-2.086c.07.222.183.406.326.557ZM8.77 41.204c-.364.343-.942.588-1.551.588-1.23 0-2.14-.962-2.14-2.15 0-1.187.91-2.15 2.14-2.15s2.14.963 2.14 2.15c0 .524-.172.952-.59 1.562Zm-1.551-3.903a2.316 2.316 0 0 0-2.353 2.341 2.316 2.316 0 0 0 2.353 2.342c.513 0 .984-.138 1.305-.351l-2.172 3.26h.267l2.269-3.453c.342-.524.682-1.091.682-1.808A2.32 2.32 0 0 0 7.22 37.3Zm49.796-20.935v-1.418l1.65.71-1.65.708Zm3.387-1.084-5.578-2.391v1.124l1.236.526v2.24l-1.236.526v1.124l5.578-2.39v-.759Zm0-10.381V3.673l-1.96-1.22 1.96-1.226V0L57.35 1.912h-2.526v1.075h2.526l3.052 1.914ZM0 38.413v.224l1.658-.94v7.196h.212v-7.485h-.106L0 38.413Z" fill="#000" fill-rule="evenodd"/></symbol>
<symbol id="icon-twitter" viewBox="0 0 20 16"><path d="M20 1.894a8.281 8.281 0 0 1-2.357.636c.849-.5 1.5-1.291 1.804-2.234a8.249 8.249 0 0 1-2.606.979A4.124 4.124 0 0 0 13.846 0c-2.264 0-4.101 1.808-4.101 4.039 0 .316.035.624.105.92A11.71 11.71 0 0 1 1.392.739a3.993 3.993 0 0 0-.555 2.03c0 1.401.724 2.638 1.825 3.362a4.16 4.16 0 0 1-1.86-.503v.05c0 1.957 1.416 3.59 3.294 3.96a4.074 4.074 0 0 1-1.083.142c-.264 0-.52-.025-.77-.072a4.094 4.094 0 0 0 3.832 2.803 8.317 8.317 0 0 1-5.096 1.73A8.55 8.55 0 0 1 0 14.186 11.764 11.764 0 0 0 6.289 16c7.55 0 11.675-6.155 11.675-11.492 0-.176-.003-.351-.01-.522A8.273 8.273 0 0 0 20 1.894"/></symbol>
<symbol id="icon-undo" viewBox="0 0 20 14"><path d="M2.947 3.705C14.057 3.448 19.81 6.69 19.81 13.53h-1.5c0-5.802-5.037-8.61-15.512-8.322L5.591 8l-1.06 1.06L0 4.53 4.53 0l1.061 1.06-2.644 2.645Z"/></symbol>
<symbol id="icon-upload" viewBox="0 0 18 21"><path d="M1.5 17a.5.5 0 0 1 .5.5V19h14v-1.5a.5.5 0 0 1 .5-.5h1a.5.5 0 0 1 .5.5v3a.5.5 0 0 1-.41.492L17.5 21H.5a.5.5 0 0 1-.5-.5v-3a.5.5 0 0 1 .5-.5h1ZM9 0c.085 0 .162.026.232.077l.068.06 8.07 8.406a.446.446 0 0 1 .057.56l-.057.072-.651.687a.401.401 0 0 1-.3.138.382.382 0 0 1-.232-.077l-.068-.06L10 3.5V16.5a.5.5 0 0 1-.5.5h-1a.5.5 0 0 1-.5-.5V3.499L1.88 9.862a.42.42 0 0 1-.217.13L1.581 10a.383.383 0 0 1-.232-.077l-.068-.06-.651-.688a.447.447 0 0 1-.057-.56l.057-.072L8.7.137A.401.401 0 0 1 9 0Z"/></symbol>
<symbol id="icon-video" viewBox="0 0 60 60"><g fill-rule="evenodd"><circle opacity=".345" cx="30" cy="30" r="30"/><path d="m41.5 30-18 10.5v-21z"/></g></symbol>
<symbol id="icon-warning-alt" viewBox="0 0 23 23"><path fill-rule="evenodd" d="M10.143 15.705c0-.398.14-.736.419-1.013.28-.276.61-.415.992-.415s.712.139.992.415c.28.277.42.615.42 1.013 0 .387-.138.717-.412.988a1.368 1.368 0 0 1-1 .407c-.393 0-.726-.136-1-.407-.274-.271-.411-.6-.411-.988Zm.016-10.608h2.79l-.482 7.786h-1.834l-.474-7.786ZM11.5 21a9.5 9.5 0 1 0 0-19 9.5 9.5 0 0 0 0 19Zm0 2C5.149 23 0 17.851 0 11.5S5.149 0 11.5 0 23 5.149 23 11.5 17.851 23 11.5 23Z"/></symbol>
<symbol id="icon-warning-black" viewBox="0 0 17.69 15.724"><g fill="none" fill-rule="evenodd"><mask id="b" fill="#fff"><use xlink:href="#a"/></mask><path d="M8.107 12.73h1.475v-1.498H8.107v1.497Zm0-2.996h1.475V5.241H8.107v4.493Zm8.053 4.268a.418.418 0 0 1-.376.217H1.904a.433.433 0 0 1-.376-.217.446.446 0 0 1 0-.442l6.94-11.845a.429.429 0 0 1 .752.007l6.933 11.846a.432.432 0 0 1 0 .441l.007-.007Zm1.269-1.198L10.496.958A1.887 1.887 0 0 0 8.844 0C8.151 0 7.54.36 7.2.958L.26 12.804a1.952 1.952 0 0 0 0 1.947c.347.606.966.973 1.652.973h13.872c.693 0 1.313-.367 1.652-.973a1.97 1.97 0 0 0-.007-1.947Z" fill="#000" mask="url(#b)"/></g></symbol>
<symbol id="icon-warning" viewBox="0 0 24 22.29"><g data-name="Layer 2"><path d="M23.79 19.76a1.69 1.69 0 0 1 0 1.69 1.71 1.71 0 0 1-1.47.84H1.71a1.71 1.71 0 0 1-1.47-.84 1.69 1.69 0 0 1 0-1.69L10.5.9a1.7 1.7 0 0 1 3 0Zm-9.86-12.5A.32.32 0 0 0 13.8 7a.55.55 0 0 0-.32-.15h-2.95a.55.55 0 0 0-.32.15.37.37 0 0 0-.13.28l.23 6.12c0 .17.2.31.46.31h2.48c.24 0 .44-.13.46-.31Zm-.21 8.61a.43.43 0 0 0-.43-.44h-2.57a.43.43 0 0 0-.43.44v2.55a.43.43 0 0 0 .43.44h2.57a.43.43 0 0 0 .43-.44Z" data-name="Layer 1"/></g></symbol>
<symbol id="icon-x" viewBox="0 0 33 33"><path d="m32.056.237.707.707L17.207 16.5l15.556 15.556-.707.707L16.5 17.207.944 32.763l-.707-.707L15.793 16.5.237.944.944.237 16.5 15.793 32.056.237Z" fill="#FFF" fill-rule="evenodd"/></symbol>
<symbol id="icon-youtube" viewBox="0 0 20 15"><path d="M15.812.017H4.145A4.145 4.145 0 0 0 0 4.162v5.832a4.145 4.145 0 0 0 4.145 4.145h11.667a4.145 4.145 0 0 0 4.145-4.145V4.162A4.145 4.145 0 0 0 15.812.017Zm-2.803 7.345L7.552 9.964a.22.22 0 0 1-.314-.197V4.399a.22.22 0 0 1 .318-.196l5.458 2.766a.22.22 0 0 1-.005.393Z"/></symbol>
<symbol id="icon-zoom-in" viewBox="0 0 14 14"><path d="M8 6h6v2H8v6H6V8H0V6h6V0h2v6Z"/></symbol>
<symbol id="icon-zoom-minus" viewBox="0 0 24.78 24.72"><g data-name="Layer 2"><path d="M18.27 16.76a10.3 10.3 0 1 0-1.44 1.45l6.51 6.51 1.45-1.45Zm-2-.52a8.43 8.43 0 1 1 0-11.92 8.44 8.44 0 0 1-.03 11.92ZM5 11.16h10.56V9.87H5Z" data-name="Layer 1"/></g></symbol>
<symbol id="icon-zoom-out" viewBox="0 0 14 2"><path d="M0 0h14v2H0z"/></symbol>
<symbol id="icon-zoom-plus" viewBox="0 0 24.78 24.72"><g data-name="Layer 2"><path d="M10.91 5.15h-1.3V9.8H5v1.3h4.6v4.6h1.3v-4.6h4.66V9.8h-4.65Zm7.36 11.61a10.3 10.3 0 1 0-1.44 1.45l6.51 6.51 1.45-1.45Zm-2-.52a8.43 8.43 0 1 1 0-11.92 8.44 8.44 0 0 1-.03 11.92Z" data-name="Layer 1"/></g></symbol>
<symbol id="progress-arrow" viewBox="0 0 40 10"><path d="M33.878 0c.091 0 .172.033.243.1l4.927 4.67a.31.31 0 0 1 .106.23.309.309 0 0 1-.106.23L34.121 9.9a.343.343 0 0 1-.487 0l-.528-.5A.309.309 0 0 1 33 9.168c0-.087.035-.164.106-.23L36.733 5.5H0v-1h36.733l-3.627-3.438A.309.309 0 0 1 33 .832c0-.087.035-.164.106-.23L33.635.1c.07-.067.151-.1.243-.1Z" fill="#9B9B9B" fill-rule="evenodd"/></symbol>
</svg>